<?xml version="1.0" encoding="utf-8"?>
<!-- Generator: Adobe Illustrator 14.0.0, SVG Export Plug-In . SVG Version: 6.00 Build 43363)  -->
<!DOCTYPE svg PUBLIC "-//W3C//DTD SVG 1.1 Tiny//EN" "http://www.w3.org/Graphics/SVG/1.1/DTD/svg11-tiny.dtd">
<svg version="1.1" baseProfile="tiny" id="Layer_1" xmlns="http://www.w3.org/2000/svg" xmlns:xlink="http://www.w3.org/1999/xlink"
	 x="0px" y="0px" width="266px" height="330.242px" viewBox="0 0 266 330.242" xml:space="preserve">
<g>
	<g>
		<path fill-rule="evenodd" d="M129.001,0c2.494,0,4.988,0,7.482,0c18.941,2.939,34.544,15.663,36.121,36.12
			c1.774,23.039-11.959,35.848-28.639,42.054c0,5.418,0,10.836,0,16.254c6.939-0.747,11.143,1.241,12.642,5.934
			c17.028,0,34.056,0,51.084,0c2.945-7.406,6.647-16.176,16.512-15.996c22.761,0.416,22.972,49.776,0.259,50.568
			c-9.839,0.343-14.139-8.281-16.771-16.512c-16.942,0-33.885,0-50.826,0c-1.976,3.614-4.44,6.74-10.578,6.192
			c2.036,37.337,2.973,77.078,5.934,115.327c1.062,13.712,0.345,36.822,13.674,37.926c4.027,0.333,8.019-1.078,11.611-2.322
			c3.605-1.25,7.283-2.346,10.062-3.87c3.914-2.147,7.686-5.653,11.61-8.772c7.518-5.976,14.935-12.061,21.414-19.35
			c3.109-3.499,7.453-7.237,6.966-12.642c-3.288-3.016-9.351-0.568-13.416-1.29c-2.181-0.387-4.455-3.287-6.192-4.644
			c-2.3-1.796-4.284-3.057-6.191-4.386c21.084-11.682,43.132-23.777,64.242-34.572c-0.507,27.444-1.329,54.572-1.807,82.045
			c-0.75,0.263-3.833-1.96-4.901-3.096c-2.658-2.827-4.576-7.303-6.966-11.094c-2.428-3.85-5.013-7.44-6.709-11.094
			c-15.273,17.636-23.993,40.236-39.731,57.018c-15.85,16.9-36.23,27.233-66.049,30.444c-3.784,0-7.568,0-11.352,0
			c-29.81-2.721-51.6-13.689-68.628-29.154c-8.511-7.729-14.903-17.298-21.672-27.09c-6.71-9.706-13.046-20.274-17.028-31.734
			c-2.664,4.322-5.68,8.901-8.514,13.416c-2.817,4.487-5.062,9.659-9.03,12.384C2.355,242.059,1.481,215.67,0,189.889
			c0-1.376,0-2.752,0-4.128c21.629,11.052,43.393,21.967,64.758,33.282c-1.982,1.617-4.065,3.486-6.45,5.418
			c-1.759,1.425-4.874,4.761-6.966,5.16c-4.023,0.768-9.694-1.546-13.416,1.032c6.067,11.74,16.358,20.445,26.058,28.638
			c4.831,4.081,9.964,8.175,15.738,11.61c5.753,3.422,12.396,6.865,20.898,6.45c8.216-3.574,10.448-21.087,11.61-31.477
			c4.267-38.151,2.732-84.268,6.45-121.261c-2.837-0.093-3.909-0.104-5.934-1.29c-1.849-1.083-2.765-4.345-4.386-4.902
			c-2.741-0.941-9.056,0-12.384,0c-12.772,0-26.289,0-37.926,0c-3.003,8.166-6.982,16.862-17.028,16.512
			c-16.094-0.562-21.197-27.13-13.158-41.28c1.975-3.477,5.261-6.91,8.514-8.256c12.35-5.113,18.743,7.551,21.93,14.964
			c16.856,0,33.712,0,50.568,0c1.766-4.512,5.755-6.8,12.9-5.934c0-5.418,0-10.836,0-16.254
			c-18.219-5.397-32.479-23.623-28.122-45.924C97.103,14.6,110.666,2.575,129.001,0z M110.683,37.926
			c-1.485,18.094,16.794,28.904,31.477,22.188c8.208-3.754,14.637-13.062,12.384-24.768c-2.058-10.689-11.805-18.844-24.768-17.286
			C119.461,19.3,111.545,27.416,110.683,37.926z"/>
	</g>
</g>
</svg>
