<?xml version="1.0" encoding="UTF-8" standalone="no"?>
<svg
   xmlns:dc="http://purl.org/dc/elements/1.1/"
   xmlns:cc="http://creativecommons.org/ns#"
   xmlns:rdf="http://www.w3.org/1999/02/22-rdf-syntax-ns#"
   xmlns:svg="http://www.w3.org/2000/svg"
   xmlns="http://www.w3.org/2000/svg"
   xmlns:sodipodi="http://sodipodi.sourceforge.net/DTD/sodipodi-0.dtd"
   xmlns:inkscape="http://www.inkscape.org/namespaces/inkscape"
   version="1.1"
   x="0px"
   y="0px"
   viewBox="0 0 115 115"
   enable-background="new 0 0 100 100"
   xml:space="preserve"
   id="svg2"
   inkscape:version="0.91 r13725"
   sodipodi:docname="noun_735251_cc.svg"
   width="115"
   height="115"><metadata
     id="metadata14"><rdf:RDF><cc:Work
         rdf:about=""><dc:format>image/svg+xml</dc:format><dc:type
           rdf:resource="http://purl.org/dc/dcmitype/StillImage" /><dc:title></dc:title></cc:Work></rdf:RDF></metadata><defs
     id="defs12" /><sodipodi:namedview
     pagecolor="#ffffff"
     bordercolor="#666666"
     borderopacity="1"
     objecttolerance="10"
     gridtolerance="10"
     guidetolerance="10"
     inkscape:pageopacity="0"
     inkscape:pageshadow="2"
     inkscape:window-width="1869"
     inkscape:window-height="1056"
     id="namedview10"
     showgrid="false"
     fit-margin-top="0"
     fit-margin-left="0"
     fit-margin-right="0"
     fit-margin-bottom="0"
     inkscape:zoom="1.888"
     inkscape:cx="34.836"
     inkscape:cy="32.457"
     inkscape:window-x="1971"
     inkscape:window-y="24"
     inkscape:window-maximized="1"
     inkscape:current-layer="svg2" /><path
     d="m 91.8625,19.7455 0,77.992998 c 0,2.626002 -2.136,4.762002 -4.762,4.762002 l -59.201,0 c -2.626,0 -4.762,-2.136 -4.762,-4.762002 l 0,-77.992998 c 0,-2.626 2.136,-4.762001 4.762,-4.762001 l 26.613,0 c -0.693,0.772 -1.309,1.612 -1.832,2.514001 l -24.781,0 c -1.241,0 -2.248,1.006001 -2.248,2.248 l 0,77.992998 c 0,1.241 1.006,2.248001 2.248,2.248001 l 59.201,0 c 1.241,0 2.248,-1.006 2.248,-2.248001 l 0,-77.992998 c 0,-1.241 -1.006,-2.248 -2.248,-2.248 l -8.46,0 c -0.523,-0.903 -1.139,-1.743001 -1.832,-2.514001 l 10.292,0 c 2.626,0 4.762,2.136001 4.762,4.762001 z m -37.016,74.606999 c 0,1.465999 1.188,2.654 2.654,2.654 1.466,0 2.654,-1.188001 2.654,-2.654 0,-1.466 -1.188,-2.653997 -2.654,-2.653997 -1.466,0 -2.654,1.187996 -2.654,2.653997 z m -1.677,-69.362996 c 0,-2.152 0.548,-4.179001 1.51,-5.949002 0.385,-0.708001 0.837,-1.375001 1.346,-1.992001 0.255,-0.309 0.524,-0.605001 0.807,-0.887001 2.262,-2.262001 5.384,-3.662001 8.828,-3.662001 3.443,0 6.566,1.401 8.828,3.662001 0.283,0.283 0.552,0.579001 0.807,0.887001 0.51,0.617 0.961,1.284 1.346,1.992001 0.963,1.770001 1.51,3.796002 1.51,5.949002 0,0.601 -0.043,1.198 -0.127,1.787 -0.254,1.766 -0.882,3.458 -1.855,4.969 l -8.509,13.24 c -0.218,0.340001 -0.516,0.613 -0.86,0.8 -0.344,0.188 -0.734,0.29 -1.138,0.29 -0.808,0 -1.561,-0.411 -1.998,-1.091 l -8.511,-13.241 c -0.006,-0.009 -0.011,-0.017 -0.017,-0.026 -1.287,-2.008 -1.967,-4.333 -1.967,-6.728 z m 7.369,0.016 c 0,0.353 0.036,0.698 0.104,1.031 0.171,0.833 0.545,1.593 1.067,2.226 0.209,0.253 0.442,0.486 0.695,0.695 0.253,0.209 0.527,0.394 0.817,0.552 0.726,0.395 1.557,0.619 2.44,0.619 0.883,0 1.714,-0.224 2.44,-0.619 0.29,-0.158 0.564,-0.343 0.817,-0.552 0.253,-0.209 0.486,-0.442 0.695,-0.695 0.522,-0.633 0.896,-1.393 1.067,-2.226 0.068,-0.333 0.104,-0.678 0.104,-1.031 0,-2.825001 -2.297,-5.122002 -5.122,-5.122002 -2.826,0 -5.124,2.298001 -5.124,5.122002 z m 19.123,35.225 c -0.541,-0.434 -1.332,-0.346 -1.767,0.196 -0.402,0.503 -0.356,1.218999 0.084,1.666 0.241,0.25 0.57,0.382 0.904,0.382 0.239,0 0.482,-0.068 0.696,-0.211 0.578,-0.386 0.734,-1.166 0.349,-1.743 -0.072,-0.109 -0.165,-0.21 -0.266,-0.29 z m -40.494,-27.08 c 0.694,0 1.257,-0.563 1.257,-1.257 0,-0.07 -0.007,-0.147 -0.018,-0.215 -0.114,-0.685 -0.766,-1.148 -1.447,-1.033 -0.657,0.11 -1.11,0.71 -1.044,1.364 0.058,0.639 0.596,1.141 1.252,1.141 z m 2.361,9.427 c 0.132,0 0.266,-0.02 0.397,-0.065 0.659,-0.219 1.015,-0.930999 0.795,-1.59 -0.019,-0.056 -0.045,-0.119 -0.071,-0.172 -0.311,-0.621 -1.067,-0.872 -1.687,-0.561999 -0.602,0.301 -0.857,1.021 -0.588,1.63 0.202,0.468 0.662,0.759 1.154,0.759 z m -1.332,-15.558999 0,-0.008 c 0,-0.694 -0.563,-1.253 -1.257,-1.253 -0.694,0 -1.257,0.567 -1.257,1.261 0,0.693999 0.563,1.257 1.257,1.257 0.694,10e-4 1.257,-0.562 1.257,-1.257 z m -0.223,10.941 c 0.052,0 0.105,-0.003 0.158,-0.01 0.689,-0.086 1.178,-0.715 1.091,-1.404 -0.01,-0.082 -0.031,-0.171 -0.057,-0.25 -0.219,-0.658 -0.932,-1.016 -1.59,-0.795 -0.627,0.209 -0.979,0.863 -0.823,1.494 0.134,0.566 0.642,0.965 1.221,0.965 z m 10.722,12.684 c -0.385,0.578 -0.229,1.357999 0.349,1.743 0.093,0.062 0.201,0.115 0.307,0.151 0.132,0.044 0.266,0.065 0.397,0.065 0.527,0 1.017,-0.333 1.193,-0.859 0.197,-0.591 -0.069,-1.225 -0.602,-1.508001 -0.563,-0.307 -1.28,-0.137 -1.644,0.408001 z m 4.494,1.892 c -0.385,0.578 -0.229,1.358 0.349,1.743 0.093,0.062 0.201,0.115 0.307,0.151 0.132,0.044 0.266,0.065 0.397,0.065 0.527,0 1.017,-0.333 1.193,-0.859 0.197,-0.591 -0.069,-1.225 -0.602,-1.508 -0.563,-0.306 -1.28,-0.137 -1.644,0.408 z m -11.841,-8.11 c -0.578,0.385 -0.734,1.166 -0.349,1.743 0.046,0.069 0.104,0.14 0.162,0.198 0.246,0.246 0.567,0.368 0.889,0.368 0.322,0 0.643,-0.123 0.889,-0.368 0.453,-0.453 0.488,-1.166 0.105,-1.659 -0.398,-0.522 -1.14,-0.65 -1.696,-0.282 z m 22.381,12.294 c 0.694,0 1.257,-0.563001 1.257,-1.257 0,-0.613 -0.438,-1.123 -1.019,-1.234 -0.613,-0.127001 -1.236,0.226999 -1.439,0.835 -0.22,0.659 0.136,1.371 0.795,1.59 0.129,0.043 0.271,0.066 0.406,0.066 z m 4.753,1.112 c 0.694,0 1.257,-0.563 1.257,-1.257 0,-0.613 -0.438,-1.123 -1.019,-1.234 -0.613,-0.127001 -1.236,0.226999 -1.439,0.835 -0.22,0.659 0.136,1.370999 0.795,1.59 0.129,0.042 0.271,0.066 0.406,0.066 z m -9.534,-2.085 c 0.694,0 1.257,-0.563001 1.257,-1.257 0,-0.613 -0.438,-1.123 -1.019,-1.234 -0.614,-0.128 -1.236,0.228 -1.439,0.835 -0.22,0.659 0.136,1.371 0.795,1.59 0.128,0.042 0.27,0.066 0.406,0.066 z m 21.868,8.853999 -0.004,-0.007 c -0.311,-0.620999 -1.064,-0.869999 -1.685,-0.557999 -0.621,0.31 -0.871,1.069 -0.561,1.69 0.221,0.44 0.664,0.694999 1.125,0.694999 0.189,0 0.381,-0.043 0.561,-0.132999 0.622,-0.312 0.874,-1.066001 0.564,-1.687 z m 0.665,-19.177 0,-21.021 c 0,-0.546 -0.444,-0.99 -0.991,-0.99 l -1.91,0 c -0.091,-0.863 -0.266,-1.701001 -0.497,-2.514001 l 2.407,0 c 1.933,0 3.505,1.572 3.505,3.505001 l 0,50.079999 c 0,0.003 10e-4,0.005 10e-4,0.008 0,0.003 -10e-4,0.005 -10e-4,0.008 l 0,11.878 c 0,1.933 -1.572,3.506 -3.505,3.506 l -49.982,0 c -1.932,0 -3.505,-1.572 -3.505,-3.506 l 0,-61.975 c 0,-1.932001 1.572,-3.505001 3.505,-3.505001 l 18.729,0 c -0.231,0.814 -0.407,1.651001 -0.497,2.514001 l -11.486,0 c -0.008,0 -0.016,0.002 -0.025,0.002 -0.008,0 -0.016,-0.002 -0.024,-0.002 l -6.697,0 c -0.546,0 -0.99,0.444 -0.99,0.99 l 0,22.477 7.109,7.282 15.985,-18.607 1.419,2.207 -8.4,9.778 c 0.256,0.004 0.514,0.066 0.733,0.23 0.536,0.396 0.672,1.148 0.298,1.708 -0.242,0.363 -0.641,0.56 -1.047,0.56 -0.239,0 -0.482,-0.068 -0.696,-0.211 -0.03,-0.02 -0.066,-0.047 -0.095,-0.07 -0.247,-0.198 -0.394,-0.47 -0.447,-0.759 l -5.987,6.969 18.024,18.461 24.875,-29.168 0.192,0.165 z m -51.963,5.055 0,11.959001 5.465,-6.361 -5.465,-5.598 z m 0.99,36.887999 14.872,0 9.396,-11.018 -18.03,-18.468 -7.228,8.414 0,20.08 c 0,0.548 0.444,0.992 0.99,0.992 z m 35.025,0 -8.993,-9.211 -7.855,9.211 16.848,0 z m 15.948,-16.465 c -0.504,-0.024 -0.966,-0.344 -1.135,-0.85 -0.22,-0.659 0.135,-1.373999 0.794,-1.593999 0.113,-0.038 0.227,-0.053 0.341,-0.058 l 0,-19.489 -7.433,8.716 c 0.205,0.311 0.285,0.7 0.158,1.08 -0.176,0.526 -0.666,0.859 -1.193,0.859 -0.132,0 -0.266,-0.02 -0.397,-0.065 -0.041,-0.014 -0.078,-0.04 -0.118,-0.058 l -14.32,16.791 10.868,11.132001 11.444,0 c 0.546,0 0.991,-0.444 0.991,-0.991 l 0,-15.473 z"
     id="path4"
     inkscape:connector-curvature="0" /></svg>