<?xml version="1.0" encoding="utf-8"?>
<!-- Generator: Adobe Illustrator 14.0.0, SVG Export Plug-In . SVG Version: 6.00 Build 43363)  -->
<svg version="1.2" baseProfile="tiny" id="Capa_1" xmlns="http://www.w3.org/2000/svg" xmlns:xlink="http://www.w3.org/1999/xlink"
	 x="0px" y="0px" width="595.277px" height="372.266px" viewBox="0 0 595.277 372.266" xml:space="preserve">
<path fill="#231F20" d="M544.604,31.354h-50.98l-2.26-4.031C481.92,10.469,464.051,0,444.732,0H19.003C8.508-0.001,0,8.506,0,19.002
	V301.2c0,10.494,8.508,19.002,19.003,19.002h33.203c8.334,29.984,35.861,52.063,68.465,52.063s60.131-22.077,68.465-52.063h186.127
	c8.334,29.984,35.861,52.063,68.465,52.063c32.605,0,60.131-22.077,68.465-52.063h39.855c10.494,0,19.002-8.508,19.002-19.002
	V188.945c0-11.552-2.73-23.116-7.896-33.442c-0.135-0.268-48.242-86.145-48.242-86.145h29.688c6.984,0,12.67,5.682,12.67,12.668
	v31.039c0,10.496,8.508,19.004,19.002,19.004s19.004-8.508,19.004-19.004V82.03C595.279,54.084,572.549,31.354,544.604,31.354z
	 M381.968,125.42h-67.461V38.004h67.461V125.42z M126.372,125.42V38.004h67.461v87.416H126.372z M220.438,38.004h67.461v87.416
	h-67.461V38.004L220.438,38.004z M99.769,38.004v87.416H38.006V38.004H99.769L99.769,38.004z M120.671,334.262
	c-18.229,0-33.059-14.83-33.059-33.061c0-18.229,14.83-33.059,33.059-33.059s33.059,14.828,33.059,33.059
	S138.9,334.262,120.671,334.262z M443.729,334.262c-18.23,0-33.06-14.83-33.06-33.061c0-18.229,14.828-33.059,33.06-33.059
	s33.059,14.83,33.059,33.059C476.785,319.432,461.959,334.262,443.729,334.262z M512.191,282.198
	c-8.334-29.984-35.857-52.063-68.465-52.063c-32.604,0-60.131,22.078-68.465,52.063H189.137
	c-8.334-29.984-35.861-52.063-68.465-52.063s-60.132,22.078-68.466,52.063h-14.2V163.426H391.61l141.437,56.572v62.195h-20.854
	L512.191,282.198L512.191,282.198z M531.504,178.448l-122.933-49.172V38.004h36.158c5.582,0,10.744,3.023,13.473,7.895
	C458.205,45.899,530.934,176.532,531.504,178.448z"/>
</svg>
