<?xml version="1.0" encoding="utf-8"?>
<!-- Generator: Adobe Illustrator 14.0.0, SVG Export Plug-In . SVG Version: 6.00 Build 43363)  -->
<!DOCTYPE svg PUBLIC "-//W3C//DTD SVG 1.1//EN" "http://www.w3.org/Graphics/SVG/1.1/DTD/svg11.dtd">
<svg version="1.1" id="Capa_1" xmlns="http://www.w3.org/2000/svg" xmlns:xlink="http://www.w3.org/1999/xlink" x="0px" y="0px"
	 width="595.278px" height="372.267px" viewBox="0 234.811 595.278 372.267" enable-background="new 0 234.811 595.278 372.267"
	 xml:space="preserve">
<path fill="#1A171B" d="M544.603,266.167h-50.98l-2.26-4.031c-9.443-16.854-27.313-27.324-46.631-27.324H19.003
	C8.508,234.811,0,243.319,0,253.814v282.198c0,10.495,8.508,19.003,19.003,19.003h33.203c8.334,29.984,35.861,52.063,68.465,52.063
	s60.131-22.078,68.465-52.063h186.128c8.334,29.984,35.861,52.063,68.465,52.063c32.605,0,60.131-22.078,68.465-52.063h39.855
	c10.494,0,19.002-8.508,19.002-19.003V423.758c0-11.552-2.73-23.116-7.895-33.444c-0.135-0.267-48.242-86.144-48.242-86.144h29.688
	c6.984,0,12.67,5.683,12.67,12.668v31.04c0,10.495,8.508,19.003,19.002,19.003s19.004-8.508,19.004-19.003v-31.036
	C595.28,288.897,572.548,266.167,544.603,266.167z M381.968,360.232h-67.461v-87.416h67.461V360.232z M126.372,360.232v-87.416
	h67.461v87.416H126.372z M220.438,272.816h67.461v87.416h-67.461V272.816L220.438,272.816z M99.769,272.816v87.416H38.006v-87.416
	H99.769z M120.671,569.074c-18.229,0-33.059-14.83-33.059-33.06c0-18.229,14.83-33.059,33.059-33.059s33.059,14.828,33.059,33.059
	C153.73,554.244,138.9,569.074,120.671,569.074z M443.728,569.074c-18.229,0-33.059-14.83-33.059-33.06
	c0-18.229,14.83-33.059,33.059-33.059c18.23,0,33.059,14.83,33.059,33.059C476.786,554.244,461.958,569.074,443.728,569.074z
	 M512.192,517.01c-8.334-29.984-35.859-52.062-68.465-52.062c-32.604,0-60.131,22.077-68.465,52.062H189.137
	c-8.334-29.984-35.861-52.062-68.465-52.062S60.54,487.025,52.206,517.01h-14.2V398.238H391.61l141.434,56.574v62.195h-20.852
	V517.01z M531.503,413.26l-122.93-49.172v-91.272h36.158c5.582,0,10.744,3.025,13.473,7.896
	C458.206,280.712,530.933,411.344,531.503,413.26z"/>
</svg>
