<?xml version="1.0" encoding="utf-8"?>
<!-- Generator: Adobe Illustrator 14.0.0, SVG Export Plug-In . SVG Version: 6.00 Build 43363)  -->
<!DOCTYPE svg PUBLIC "-//W3C//DTD SVG 1.1 Tiny//EN" "http://www.w3.org/Graphics/SVG/1.1/DTD/svg11-tiny.dtd">
<svg version="1.1" baseProfile="tiny" id="Layer_2" xmlns="http://www.w3.org/2000/svg" xmlns:xlink="http://www.w3.org/1999/xlink"
	 x="0px" y="0px" width="324px" height="225px" viewBox="0 0 324 225" xml:space="preserve">
<path fill-rule="evenodd" d="M312,18h-15V0h-72v18H12C5.373,18,0,23.373,0,30v183c0,6.627,5.373,12,12,12h300
	c6.627,0,12-5.373,12-12V30C324,23.373,318.627,18,312,18z M108,72H27V36h81V72z M207,189c-34.794,0-63-28.206-63-63
	s28.206-63,63-63s63,28.206,63,63S241.794,189,207,189z"/>
</svg>
