<?xml version="1.0" encoding="utf-8"?>
<!-- Generator: Adobe Illustrator 14.0.0, SVG Export Plug-In . SVG Version: 6.00 Build 43363)  -->
<svg version="1.2" baseProfile="tiny" id="Layer_1" xmlns="http://www.w3.org/2000/svg" xmlns:xlink="http://www.w3.org/1999/xlink"
	 x="0px" y="0px" width="141.918px" height="134.712px" viewBox="0 0 141.918 134.712" xml:space="preserve">
<g>
	<g>
		<g>
			<path fill="#010101" d="M141.466,57.04c0.86-1.054,0.455-1.908-0.905-1.908h-11.19c-1.359,0-2.605-1.093-2.841-2.433
				C121.279,22.798,95.136,0,63.753,0C28.6,0,0,28.599,0,63.753s28.599,63.754,63.753,63.754c3.401,0,6.158-2.757,6.158-6.158
				c0-3.399-2.757-6.157-6.158-6.157c-28.363,0-51.438-23.074-51.438-51.438c0-28.363,23.074-51.438,51.438-51.438
				c24.573,0,45.165,17.326,50.231,40.399c0.292,1.329-0.633,2.418-1.994,2.418h-9.853c-1.36,0-1.766,0.854-0.904,1.907
				l18.558,22.706c0.86,1.053,2.256,1.053,3.117,0L141.466,57.04z"/>
		</g>
	</g>
	<circle fill="#010101" cx="68.41" cy="122.101" r="12.611"/>
</g>
</svg>
