<?xml version="1.0" encoding="utf-8"?>
<!-- Generator: Adobe Illustrator 14.0.0, SVG Export Plug-In . SVG Version: 6.00 Build 43363)  -->
<!DOCTYPE svg PUBLIC "-//W3C//DTD SVG 1.1 Tiny//EN" "http://www.w3.org/Graphics/SVG/1.1/DTD/svg11-tiny.dtd">
<svg version="1.1" baseProfile="tiny" id="Layer_2" xmlns="http://www.w3.org/2000/svg" xmlns:xlink="http://www.w3.org/1999/xlink"
	 x="0px" y="0px" width="296.166px" height="306.938px" viewBox="0 0 296.166 306.938" xml:space="preserve">
<g>
	<path stroke="#000000" stroke-width="5" d="M257.62,75.829c11.162-20.722,13.484-39.943,4.63-54.023
		C254.307,9.176,238.628,2.5,216.91,2.5c-25.06,0-56.571,9.161-87.608,25.083c-9.896-1.065-19.655-1.62-29.192-1.62
		c-25.352,0-47.736,3.814-64.732,11.032C16.985,44.804,5.834,56.243,3.13,70.074c-3.188,16.311,5.881,33.394,23.729,48.697
		c-11.14,20.703-13.45,39.905-4.603,53.975c7.943,12.629,23.622,19.306,45.34,19.306c10.009,0,21.049-1.468,32.675-4.235
		l-5.401-8.993c-9.692,2.115-18.883,3.229-27.273,3.229c-12.624,0-29.27-2.538-36.875-14.63
		c-6.617-10.521-4.559-25.582,4.189-42.299c11.31,8.237,25.201,15.809,41.08,22.266l-9.108-15.167
		c-10.132-4.907-19.175-10.275-26.843-15.905c14.465-22.611,39.904-47.229,71.85-67.319c6.369-4.006,12.829-7.722,19.31-11.138
		c7.269,0.86,14.61,1.999,21.999,3.443c35.166,6.875,66.942,19.502,89.476,35.553c0.619,0.441,1.227,0.883,1.828,1.327
		c-8.322,13.022-20.289,26.71-35.042,39.818l6.95,7.366c15.103-13.363,27.315-27.275,36.024-40.781
		c14.507,12.848,21.403,26.322,19.126,37.973c-0.8,4.09-2.714,7.924-5.611,11.453l5.501,8.92c5.236-5.482,8.601-11.679,9.925-18.454
		C284.479,108.599,276.087,91.589,257.62,75.829z M106.564,40.532c-33.348,20.973-59.258,45.815-74.481,69.414
		C17.901,97.5,10.559,84.191,12.944,71.993c4.214-21.551,39.242-36.03,87.165-36.03c4.402,0,8.857,0.124,13.352,0.361
		C111.152,37.691,108.852,39.093,106.564,40.532z M248.475,68.71c-23.669-16.86-56.824-30.08-93.359-37.223
		c-2.641-0.516-5.274-0.987-7.904-1.432C172.318,18.821,196.891,12.5,216.91,12.5c12.625,0,29.271,2.538,36.875,14.629
		c6.626,10.537,4.554,25.624-4.227,42.369C249.197,69.236,248.842,68.972,248.475,68.71z"/>
	<g>
		<path fill-rule="evenodd" stroke="#000000" stroke-width="5" d="M178.353,108.071c-7.521,0.517-58.839,36.073-61.403,33.256
			s-37.122-40.774-37.122-40.774s-3.72-8.57-13.405-4.295c-9.684,4.275-3.5,11.303-3.5,11.303l45.023,65.283l37.143-15.195
			l36.906,41.82l25.001,52.727l-36.138,36.899c0,0-3.494,4.109,2.043,11.578s15.518,1.521,15.518,1.521l50.655-43.245l-20.26-55.717
			l43.335,21.949l6.864,45.927c0,0,2.864,11.092,13.191,12.205c10.328,1.115,11.448-10.359,11.448-10.359l-7.305-65.218
			l-65.846-39.959C220.502,167.777,185.873,107.555,178.353,108.071z"/>
		<circle fill-rule="evenodd" stroke="#000000" stroke-width="5" cx="143.253" cy="91.326" r="19.962"/>
		<path fill-rule="evenodd" stroke="#000000" stroke-width="5" d="M215.437,137.222l25.324-6.023c0,0,7.433-3.764,11.257,2.249
			c3.825,6.012-2.824,10.394-2.824,10.394l-20.813,13.807L215.437,137.222z"/>
	</g>
</g>
</svg>
