<?xml version="1.0" encoding="utf-8"?>
<!-- Generator: Adobe Illustrator 14.0.0, SVG Export Plug-In . SVG Version: 6.00 Build 43363)  -->
<svg version="1.2" baseProfile="tiny" id="Capa_1" xmlns="http://www.w3.org/2000/svg" xmlns:xlink="http://www.w3.org/1999/xlink"
	 x="0px" y="0px" width="758.937px" height="950.002px" viewBox="95.532 0 758.937 950.002" xml:space="preserve">
<g>
	<g>
		<path d="M95.532,171.291v731.635c0,25.999,21.077,47.076,47.076,47.076h452.304c25.998,0,47.076-21.077,47.076-47.076v-239
			c-10.037,7.265-22.098,11.217-34.629,11.217c-13.029,0-25.555-4.256-35.816-12.08v104.296c0,19.297-15.643,34.938-34.939,34.938
			H200.916c-19.296,0-34.939-15.644-34.939-34.938V230.766c0-19.296,15.642-34.938,34.939-34.938h206.413v-71.613H142.607
			C116.607,124.215,95.532,145.291,95.532,171.291z M368.759,853.03c14.104,0,25.535,11.434,25.535,25.534
			c0,14.104-11.434,25.535-25.535,25.535c-14.103,0-25.535-11.432-25.535-25.535C343.224,864.463,354.657,853.03,368.759,853.03z"/>
		<path d="M750.244,0H462.795c-16.68,0-30.201,13.521-30.201,30.201v94.014v71.613V414.89H373.94
			c-12.446,0-18.411,15.285-9.256,23.715l206.857,190.461l12.881,11.859c6.48,5.967,14.709,8.951,22.938,8.951
			s16.455-2.984,22.938-8.951l11.691-10.767l208.045-191.555c9.156-8.43,3.191-23.715-9.256-23.715h-58.654V31.878
			C782.121,14.272,767.85,0,750.244,0z"/>
	</g>
</g>
</svg>
