<?xml version="1.0" encoding="utf-8"?>
<!-- Generator: Adobe Illustrator 14.0.0, SVG Export Plug-In . SVG Version: 6.00 Build 43363)  -->
<!DOCTYPE svg PUBLIC "-//W3C//DTD SVG 1.1 Tiny//EN" "http://www.w3.org/Graphics/SVG/1.1/DTD/svg11-tiny.dtd">
<svg version="1.1" baseProfile="tiny" id="Layer_1" xmlns="http://www.w3.org/2000/svg" xmlns:xlink="http://www.w3.org/1999/xlink"
	 x="0px" y="0px" width="324px" height="313.2px" viewBox="0 0 324 313.2" xml:space="preserve">
<g>
	<g>
		<g>
			<path fill-rule="evenodd" d="M155.52,0c6,0,12,0,18,0C239.917,5.363,283.711,33.33,324,64.8c0,0.96,0,1.92,0,2.88
				c-28.478,18.202-60.869,31.598-88.56,50.4c-10.937,7.426-21.181,17.215-30.96,25.92c-9.821,8.741-19.745,17.35-28.08,26.64
				c1.181,45.862,1.214,96.703,0,142.56c-9.6,0-19.2,0-28.8,0c-1.312-37.101-0.72-76.675-0.72-116.64c0-10.366,2.803-29.887,0-38.88
				c-1.172-3.762-10.227-8.725-15.12-12.24c-15.374-11.047-32.691-24.93-47.52-33.84C56.457,94.906,26.926,83.342,0,67.68
				c0-0.96,0-1.92,0-2.88C41.557,32.915,87.781,5.701,155.52,0z M160.56,84.96c1.339-2.501,2.327-5.353,4.32-7.2
				c-6.372-7.068-11.623-15.257-15.84-24.479c-0.48,0-0.96,0-1.44,0C151.834,63.926,155.118,75.522,160.56,84.96z M164.16,61.92
				c1.431,2.649,2.699,5.461,5.76,6.48c1.583-5.856,5.617-9.263,7.2-15.12C167.734,51.094,167.026,57.586,164.16,61.92z
				 M124.56,54.72c-1.874,9.219-5.312,19.722-4.32,29.52c2.904,0.456,3.634,3.085,7.2,2.88c2.435-11.529,12.295-20.801,5.76-33.12
				C130.346,54.266,126.3,53.34,124.56,54.72z M193.68,54c-8.717,17.204-19.602,36.077-25.92,53.28
				c6.348-6.132,12.944-12.016,19.44-18c3.934-11.906,8.512-23.168,12.96-34.56C198.366,54.114,196.303,53.777,193.68,54z
				 M95.04,56.88c2.269,3.971,5.242,7.238,8.64,10.08c-0.257-4.262,5.363-8.951,2.16-11.52
				C103.155,56.835,98.135,55.896,95.04,56.88z M214.56,67.68c3.625-4.296,9.072-6.768,12.96-10.8
				c-2.492-1.107-6.563-0.636-10.079-0.72C217.108,60.163,212.982,64.163,214.56,67.68z M86.4,74.88
				c-0.722-2.68-4.961-6.015-6.48-7.92c-4.871-6.112-5.764-9.768-15.12-7.2c4.944,10.915,14.053,23.853,21.6,34.56
				C85.151,88.273,88.059,81.039,86.4,74.88z M259.92,60.48c-2.778,8.261-5.609,16.471-7.92,25.2
				c4.472-1.288,7.326-4.194,11.52-5.76c0.105-7.095,1.833-12.568,2.16-19.44C263.76,60.48,261.84,60.48,259.92,60.48z M35.28,63.36
				C40.425,67.819,48.241,73.434,54,74.88c-2.39-3.85-3.979-8.501-5.76-12.96C43.972,62.452,40.114,63.394,35.28,63.36z
				 M272.88,74.16c6.416-2.944,12.709-6.011,18-10.08c-5.214-1.026-10.925-1.556-16.56-2.16
				C273.789,65.949,272.975,69.694,272.88,74.16z M218.88,86.4c2.431,1.649,2.374,5.787,5.76,6.48
				c2.127-7.477,8.373-14.662,9.36-20.88C229.083,76.923,223.398,81.079,218.88,86.4z M134.64,92.16
				c11.105,2.334,9.82,17.06,15.12,25.2c1.122-15.898-5.305-27.535-10.08-39.6C138.702,83.262,135.795,86.835,134.64,92.16z
				 M95.04,99.36c3.31,1.502,7.439,5.985,10.8,5.04c-4.551-4.569-5.821-12.419-10.8-16.56C95.04,91.68,95.04,95.52,95.04,99.36z
				 M201.6,102.96c-0.951,4.407,2.548,8.841,1.44,15.12c8.154-2.646,14.051-7.549,15.84-16.56c-2.453-3.067-4.127-6.913-7.2-9.36
				C209.099,96.66,202.757,97.597,201.6,102.96z M127.44,118.8c5.711,2.449,10.129,6.191,15.84,8.64
				c-4.423-12.856-5.93-28.629-20.16-31.68C124.03,103.97,126.285,110.835,127.44,118.8z M180,107.28
				c-2.674,5.884-11.375,6.988-12.96,13.68c-1.281,5.407,2.289,11.309,0.72,19.44c4.543,0.343,8.99-5.323,13.68-7.2
				C180.512,125.008,183.316,113.083,180,107.28z"/>
		</g>
	</g>
</g>
</svg>
