<?xml version="1.0" encoding="utf-8"?>
<!-- Generator: Adobe Illustrator 14.0.0, SVG Export Plug-In . SVG Version: 6.00 Build 43363)  -->
<svg version="1.2" baseProfile="tiny" id="Layer_1" xmlns="http://www.w3.org/2000/svg" xmlns:xlink="http://www.w3.org/1999/xlink"
	 x="0px" y="0px" width="315.331px" height="72.33px" viewBox="0 0 315.331 72.33" xml:space="preserve">
<g>
	<g>
		<g>
			<rect x="1" y="1" fill="#FFFFFF" width="151.331" height="70.33"/>
			<path d="M151.331,2v68.33H2V2H151.331 M153.331,0H0v72.33h153.331V0L153.331,0z"/>
		</g>
		<g>
			<rect x="1.161" y="1" fill="#A7A9AC" width="111.944" height="70.33"/>
			<path d="M112.105,2v68.33H2.161V2H112.105 M114.105,0H0.161v72.33h113.944V0L114.105,0z"/>
		</g>
	</g>
	<g>
		<g>
			<rect x="163" y="1" fill="#FFFFFF" width="151.331" height="70.33"/>
			<path d="M313.331,2v68.33H164V2H313.331 M315.331,0H162v72.33h153.331V0L315.331,0z"/>
		</g>
		<g>
			<rect x="163.161" y="1" fill="#A7A9AC" width="111.944" height="70.33"/>
			<path d="M274.105,2v68.33H164.161V2H274.105 M276.105,0H162.161v72.33h113.944V0L276.105,0z"/>
		</g>
	</g>
</g>
</svg>
