<?xml version="1.0" encoding="utf-8"?>
<!-- Generator: Adobe Illustrator 14.0.0, SVG Export Plug-In . SVG Version: 6.00 Build 43363)  -->
<svg version="1.2" baseProfile="tiny" id="Layer_1" xmlns="http://www.w3.org/2000/svg" xmlns:xlink="http://www.w3.org/1999/xlink"
	 x="0px" y="0px" width="315.282px" height="72.33px" viewBox="0 0 315.282 72.33" xml:space="preserve">
<g>
	<g>
		<rect x="1" y="1" fill="#39B54A" width="70.33" height="70.33"/>
		<path d="M70.33,2v68.33H2V2H70.33 M72.33,0H0v72.33h72.33V0L72.33,0z"/>
	</g>
	<g>
		<rect x="82.282" y="1" fill="#39B54A" width="70.33" height="70.33"/>
		<path d="M151.612,2v68.33H83.282V2H151.612 M153.612,0H81.282v72.33h72.33L153.612,0L153.612,0z"/>
	</g>
	<g>
		<rect x="162.952" y="1" fill="#F7941E" width="70.33" height="70.33"/>
		<path d="M232.282,2v68.33h-68.33V2H232.282 M234.282,0h-72.33v72.33h72.33V0L234.282,0z"/>
	</g>
	<g>
		<rect x="243.951" y="1" fill="#FFFFFF" width="70.331" height="70.33"/>
		<path d="M313.282,2v68.33h-68.331V2H313.282 M315.282,0h-72.331v72.33h72.331V0L315.282,0z"/>
	</g>
</g>
</svg>
