<?xml version="1.0" encoding="utf-8"?>
<!-- Generator: Adobe Illustrator 14.0.0, SVG Export Plug-In . SVG Version: 6.00 Build 43363)  -->
<svg version="1.2" baseProfile="tiny" id="Layer_1" xmlns="http://www.w3.org/2000/svg" xmlns:xlink="http://www.w3.org/1999/xlink"
	 x="0px" y="0px" width="315.281px" height="72.33px" viewBox="0 0 315.281 72.33" xml:space="preserve">
<g>
	<g>
		<rect x="1" y="1" fill="#39B54A" width="70.33" height="70.33"/>
		<path d="M70.33,2v68.33H2V2H70.33 M72.33,0H0v72.33h72.33V0L72.33,0z"/>
	</g>
	<g>
		<rect x="82.282" y="1" fill="#39B54A" width="70.331" height="70.33"/>
		<path d="M151.612,2v68.33h-68.33V2H151.612 M153.612,0h-72.33v72.33h72.331L153.612,0L153.612,0z"/>
	</g>
	<g>
		<rect x="162.953" y="1" fill="#F7941E" width="70.33" height="70.33"/>
		<path d="M232.281,2v68.33h-68.33V2H232.281 M234.281,0h-72.33v72.33h72.33V0L234.281,0z"/>
	</g>
	<g>
		<rect x="243.951" y="1" fill="#EF4136" width="70.33" height="70.33"/>
		<path d="M313.281,2v68.33h-68.33V2H313.281 M315.281,0h-72.33v72.33h72.33V0L315.281,0z"/>
	</g>
</g>
</svg>
