<?xml version="1.0" encoding="utf-8"?>
<!-- Generator: Adobe Illustrator 14.0.0, SVG Export Plug-In . SVG Version: 6.00 Build 43363)  -->
<svg version="1.2" baseProfile="tiny" id="Layer_1" xmlns="http://www.w3.org/2000/svg" xmlns:xlink="http://www.w3.org/1999/xlink"
	 x="0px" y="0px" width="16px" height="16px" viewBox="0 0 16 16" xml:space="preserve">
<path fill="#FFFFFF" d="M9.405,1.05c-0.413-1.4-2.397-1.4-2.81,0L6.495,1.39C6.266,2.166,5.453,2.609,4.677,2.381
	c-0.1-0.029-0.196-0.069-0.287-0.119L4.08,2.092C2.797,1.394,1.394,2.797,2.093,4.079l0.17,0.311C2.708,5.21,2.285,6.231,1.39,6.495
	l-0.341,0.1c-1.399,0.413-1.399,2.397,0,2.811l0.341,0.1c0.775,0.229,1.219,1.042,0.99,1.817c-0.029,0.1-0.069,0.196-0.118,0.287
	L2.092,11.92c-0.697,1.283,0.705,2.686,1.987,1.987l0.312-0.169c0.71-0.387,1.599-0.125,1.985,0.584
	c0.05,0.092,0.09,0.188,0.119,0.287l0.101,0.341c0.412,1.399,2.396,1.399,2.81,0l0.1-0.341c0.229-0.775,1.043-1.219,1.818-0.99
	c0.1,0.029,0.195,0.069,0.287,0.119l0.31,0.17c1.283,0.697,2.687-0.705,1.987-1.987l-0.169-0.312
	c-0.387-0.709-0.125-1.599,0.585-1.985c0.091-0.05,0.188-0.09,0.287-0.119l0.34-0.1c1.4-0.413,1.4-2.397,0-2.811l-0.34-0.1
	c-0.775-0.229-1.22-1.042-0.991-1.818c0.029-0.1,0.069-0.196,0.119-0.287l0.17-0.31c0.698-1.283-0.705-2.686-1.987-1.987
	L11.61,2.262c-0.71,0.387-1.6,0.125-1.986-0.585C9.574,1.586,9.534,1.49,9.505,1.39L9.405,1.05z M8,10.93
	c-1.618,0-2.93-1.312-2.93-2.93S6.382,5.07,8,5.07C9.618,5.071,10.928,6.383,10.927,8c0,1.617-1.311,2.928-2.928,2.928V10.93z"/>
</svg>
