<?xml version="1.0" encoding="utf-8"?>
<!-- Generator: Adobe Illustrator 14.0.0, SVG Export Plug-In . SVG Version: 6.00 Build 43363)  -->
<svg version="1.2" baseProfile="tiny"
	 id="svg2989" xmlns:dc="http://purl.org/dc/elements/1.1/" xmlns:cc="http://creativecommons.org/ns#" xmlns:rdf="http://www.w3.org/1999/02/22-rdf-syntax-ns#" xmlns:svg="http://www.w3.org/2000/svg" xmlns:sodipodi="http://sodipodi.sourceforge.net/DTD/sodipodi-0.dtd" xmlns:inkscape="http://www.inkscape.org/namespaces/inkscape" sodipodi:docname="heart_empty_font_awesome.svg" inkscape:version="0.48.3.1 r9886"
	 xmlns="http://www.w3.org/2000/svg" xmlns:xlink="http://www.w3.org/1999/xlink" x="0px" y="0px" width="576.619px"
	 height="494.239px" viewBox="7.635 5.711 576.619 494.239" xml:space="preserve">
<sodipodi:namedview  id="namedview2995" borderopacity="1" bordercolor="#666666" showgrid="false" inkscape:zoom="0.13169643" pagecolor="#ffffff" guidetolerance="10" gridtolerance="10" inkscape:cy="896" objecttolerance="10" inkscape:cx="896" inkscape:current-layer="svg2989" inkscape:window-y="25" inkscape:window-x="0" inkscape:window-height="480" inkscape:window-width="640" inkscape:pageshadow="2" inkscape:pageopacity="0" inkscape:window-maximized="0">
	</sodipodi:namedview>
<path stroke="#000000" d="M543.385,45.61c27.25,26.6,40.869,63.49,40.869,110.69c0,47.41-24.559,95.669-73.688,144.8L310.104,494.16
	c-3.858,3.86-8.579,5.79-14.159,5.79s-10.301-1.93-14.161-5.79L80.995,300.45c-2.14-1.71-5.09-4.5-8.84-8.359
	c-3.76-3.869-9.71-10.891-17.86-21.08c-8.15-10.189-15.45-20.649-21.88-31.369c-6.44-10.73-12.18-23.71-17.22-38.94
	c-5.04-15.229-7.56-30.03-7.56-44.4c0-47.2,13.62-84.09,40.87-110.69c27.24-26.6,64.89-39.9,112.94-39.9c13.3,0,26.87,2.3,40.7,6.92
	c13.841,4.61,26.71,10.83,38.61,18.66c11.91,7.83,22.15,15.18,30.73,22.04c8.58,6.87,16.739,14.16,24.458,21.88
	c7.721-7.72,15.871-15.01,24.451-21.88c8.58-6.86,18.83-14.21,30.729-22.04c11.91-7.83,24.779-14.05,38.619-18.66
	c13.83-4.62,27.4-6.92,40.701-6.92C478.494,5.71,516.145,19.01,543.385,45.61z"/>
</svg>
