<?xml version="1.0" encoding="utf-8"?>
<!-- Generator: Adobe Illustrator 14.0.0, SVG Export Plug-In . SVG Version: 6.00 Build 43363)  -->
<svg version="1.2" baseProfile="tiny"
	 id="svg2989" xmlns:dc="http://purl.org/dc/elements/1.1/" xmlns:cc="http://creativecommons.org/ns#" xmlns:rdf="http://www.w3.org/1999/02/22-rdf-syntax-ns#" xmlns:svg="http://www.w3.org/2000/svg" xmlns:sodipodi="http://sodipodi.sourceforge.net/DTD/sodipodi-0.dtd" xmlns:inkscape="http://www.inkscape.org/namespaces/inkscape" sodipodi:docname="heart_empty_font_awesome.svg" inkscape:version="0.48.3.1 r9886"
	 xmlns="http://www.w3.org/2000/svg" xmlns:xlink="http://www.w3.org/1999/xlink" x="0px" y="0px" width="576.618px"
	 height="494.24px" viewBox="7.636 5.71 576.618 494.24" xml:space="preserve">
<sodipodi:namedview  id="namedview2995" objecttolerance="10" gridtolerance="10" guidetolerance="10" pagecolor="#ffffff" inkscape:zoom="0.13169643" showgrid="false" bordercolor="#666666" borderopacity="1" inkscape:cx="896" inkscape:cy="896" inkscape:pageopacity="0" inkscape:pageshadow="2" inkscape:window-width="640" inkscape:window-height="480" inkscape:window-x="0" inkscape:window-y="25" inkscape:current-layer="svg2989" inkscape:window-maximized="0">
	</sodipodi:namedview>
<g id="g2991" transform="matrix(1,0,0,-1,22.779661,1328.2373)">
	<g id="XMLID_1_">
		<g>
			<path fill="#231F20" d="M513.365,1217.957c4.609-13.3,6.92-28.64,6.92-46.02c0-36.04-20.16-74.22-60.49-114.55L273.166,877.518
				L86.215,1057.707c-40.12,40.12-60.17,78.19-60.17,114.23c0,17.38,2.3,32.72,6.91,46.02c4.62,13.3,10.52,23.86,17.7,31.69
				c7.19,7.83,15.93,14.21,26.23,19.15c10.29,4.93,20.38,8.25,30.24,9.97c9.87,1.72,20.38,2.57,31.54,2.57
				c11.15,0,23.17-2.73,36.04-8.2c12.87-5.47,24.721-12.33,35.551-20.59c10.84-8.26,20.109-15.99,27.84-23.17
				c7.72-7.19,14.149-13.78,19.3-19.79c3.86-4.72,9.12-7.08,15.771-7.08c6.648,0,11.898,2.36,15.77,7.08
				c5.141,6.01,11.58,12.6,19.301,19.79c7.721,7.18,17,14.91,27.84,23.17c10.83,8.26,22.68,15.12,35.551,20.59
				c12.869,5.47,24.879,8.2,36.039,8.2c11.15,0,21.67-0.85,31.531-2.57c9.869-1.72,19.949-5.04,30.25-9.97
				c10.299-4.94,19.039-11.32,26.219-19.15C502.855,1241.817,508.755,1231.257,513.365,1217.957z"/>
			<path fill="#231F20" d="M520.605,1282.627c27.25-26.6,40.869-63.49,40.869-110.69c0-47.41-24.559-95.669-73.688-144.8
				l-200.461-193.06c-3.859-3.86-8.58-5.79-14.16-5.79s-10.3,1.93-14.16,5.79l-200.79,193.71c-2.14,1.71-5.09,4.5-8.84,8.359
				c-3.76,3.87-9.71,10.891-17.86,21.08c-8.15,10.19-15.45,20.65-21.88,31.37c-6.44,10.73-12.18,23.71-17.22,38.94
				s-7.56,30.03-7.56,44.4c0,47.2,13.62,84.09,40.87,110.69c27.24,26.6,64.89,39.9,112.94,39.9c13.3,0,26.87-2.3,40.7-6.92
				c13.841-4.61,26.71-10.83,38.61-18.66c11.91-7.83,22.15-15.18,30.73-22.04c8.58-6.87,16.739-14.16,24.459-21.88
				c7.721,7.72,15.871,15.01,24.451,21.88c8.58,6.86,18.83,14.21,30.729,22.04c11.91,7.83,24.779,14.05,38.619,18.66
				c13.83,4.62,27.4,6.92,40.701,6.92C455.714,1322.527,493.365,1309.227,520.605,1282.627z M520.285,1171.937
				c0,17.38-2.311,32.72-6.92,46.02s-10.51,23.86-17.699,31.69c-7.18,7.83-15.92,14.21-26.221,19.15
				c-10.301,4.93-20.381,8.25-30.25,9.97c-9.859,1.72-20.381,2.57-31.529,2.57c-11.16,0-23.17-2.73-36.041-8.2
				c-12.869-5.47-24.719-12.33-35.549-20.59c-10.84-8.26-20.121-15.99-27.84-23.17c-7.723-7.19-14.16-13.78-19.303-19.79
				c-3.869-4.72-9.119-7.08-15.77-7.08s-11.91,2.36-15.77,7.08c-5.15,6.01-11.58,12.6-19.301,19.79
				c-7.729,7.18-17,14.91-27.84,23.17c-10.83,8.26-22.68,15.12-35.549,20.59c-12.871,5.47-24.891,8.2-36.041,8.2
				c-11.16,0-21.67-0.85-31.54-2.57c-9.86-1.72-19.95-5.04-30.24-9.97c-10.3-4.94-19.04-11.32-26.23-19.15
				c-7.18-7.83-13.08-18.39-17.7-31.69c-4.61-13.3-6.91-28.64-6.91-46.02c0-36.04,20.05-74.11,60.17-114.23l186.95-180.189
				l186.631,179.869C500.125,1097.717,520.285,1135.897,520.285,1171.937z"/>
		</g>
	</g>
</g>
</svg>
