<?xml version="1.0" encoding="utf-8"?>
<!-- Generator: Adobe Illustrator 14.0.0, SVG Export Plug-In . SVG Version: 6.00 Build 43363)  -->
<!DOCTYPE svg PUBLIC "-//W3C//DTD SVG 1.1 Tiny//EN" "http://www.w3.org/Graphics/SVG/1.1/DTD/svg11-tiny.dtd">
<svg version="1.1" baseProfile="tiny"
	 id="svg2989" xmlns:dc="http://purl.org/dc/elements/1.1/" xmlns:cc="http://creativecommons.org/ns#" xmlns:rdf="http://www.w3.org/1999/02/22-rdf-syntax-ns#" xmlns:svg="http://www.w3.org/2000/svg" xmlns:sodipodi="http://sodipodi.sourceforge.net/DTD/sodipodi-0.dtd" xmlns:inkscape="http://www.inkscape.org/namespaces/inkscape" inkscape:version="0.48.3.1 r9886" sodipodi:docname="heart_empty_font_awesome.svg"
	 xmlns="http://www.w3.org/2000/svg" xmlns:xlink="http://www.w3.org/1999/xlink" x="0px" y="0px" width="576.618px"
	 height="494.244px" viewBox="130.635 -199.292 576.618 494.244" xml:space="preserve">
<sodipodi:namedview  id="namedview2995" inkscape:window-maximized="0" bordercolor="#666666" pagecolor="#ffffff" inkscape:cy="896" guidetolerance="10" gridtolerance="10" inkscape:cx="896" objecttolerance="10" borderopacity="1" inkscape:zoom="0.13169643" showgrid="false" inkscape:current-layer="svg2989" inkscape:window-y="25" inkscape:window-x="0" inkscape:window-height="480" inkscape:window-width="640" inkscape:pageshadow="2" inkscape:pageopacity="0">
	</sodipodi:namedview>
<g id="g2991" transform="matrix(1,0,0,-1,22.779661,1328.2373)">
	<path id="path2993" inkscape:connector-curvature="0" d="M643.285,1376.939c0,17.376-2.306,32.714-6.918,46.014
		s-10.511,23.865-17.697,31.695c-7.187,7.83-15.928,14.211-26.225,19.146c-10.297,4.934-20.379,8.259-30.247,9.975
		c-9.867,1.716-20.379,2.574-31.533,2.574c-11.155,0-23.168-2.735-36.039-8.205s-24.723-12.334-35.556-20.594
		c-10.833-8.259-20.11-15.981-27.833-23.167c-7.723-7.186-14.158-13.783-19.307-19.789c-3.861-4.719-9.117-7.079-15.767-7.079
		s-11.905,2.36-15.767,7.079c-5.148,6.006-11.584,12.603-19.307,19.789c-7.722,7.187-17,14.909-27.833,23.167
		c-10.833,8.259-22.685,15.124-35.556,20.594s-24.884,8.205-36.039,8.205s-21.666-0.858-31.534-2.574
		c-9.868-1.716-19.95-5.041-30.247-9.975c-10.297-4.934-19.039-11.316-26.225-19.146c-7.187-7.83-13.085-18.395-17.698-31.695
		c-4.612-13.3-6.918-28.638-6.918-46.014c0-36.039,20.057-74.115,60.171-114.229l186.95-180.193l186.628,179.871
		C623.121,1302.717,643.285,1340.9,643.285,1376.939z M684.473,1376.939c0-47.408-24.563-95.674-73.687-144.798l-200.465-193.064
		c-3.86-3.861-8.58-5.792-14.158-5.792c-5.577,0-10.296,1.931-14.158,5.792l-200.787,193.708c-2.145,1.716-5.095,4.505-8.849,8.366
		s-9.707,10.887-17.858,21.076c-8.152,10.189-15.445,20.647-21.881,31.373c-6.435,10.726-12.173,23.704-17.215,38.935
		c-5.041,15.231-7.562,30.032-7.562,44.405c0,47.193,13.622,84.09,40.865,110.69c27.244,26.6,64.891,39.9,112.942,39.9
		c13.3,0,26.868-2.306,40.704-6.918c13.836-4.612,26.708-10.833,38.613-18.663c11.906-7.83,22.149-15.177,30.729-22.042
		c8.581-6.864,16.732-14.158,24.455-21.88c7.723,7.723,15.875,15.016,24.455,21.88c8.581,6.865,18.824,14.212,30.729,22.042
		c11.905,7.83,24.776,14.051,38.613,18.663c13.836,4.612,27.404,6.918,40.704,6.918c48.052,0,85.699-13.3,112.942-39.9
		C670.851,1461.029,684.473,1424.132,684.473,1376.939z"/>
</g>
</svg>
