<?xml version="1.0" encoding="utf-8"?>
<!-- Generator: Adobe Illustrator 14.0.0, SVG Export Plug-In . SVG Version: 6.00 Build 43363)  -->
<!DOCTYPE svg PUBLIC "-//W3C//DTD SVG 1.1 Tiny//EN" "http://www.w3.org/Graphics/SVG/1.1/DTD/svg11-tiny.dtd">
<svg version="1.1" baseProfile="tiny" id="Layer_2" xmlns="http://www.w3.org/2000/svg" xmlns:xlink="http://www.w3.org/1999/xlink"
	 x="0px" y="0px" width="264.818px" height="314.749px" viewBox="0 0 264.818 314.749" xml:space="preserve">
<g>
	<path fill-rule="evenodd" d="M216.499,198.681c-20.57,9.954-72.935,0.664-72.935,0.664s46.328-46.521,66.78-49.769
		c20.451-3.25,54.474-0.512,54.474-0.512S237.068,188.727,216.499,198.681z"/>
	<path fill-rule="evenodd" d="M138.147,292.713c-34.799,4.781-83.375-17.903-83.375-17.903s51.739-32.476,78.398-33.146
		c26.657-0.671,64.662,12.991,64.662,12.991S172.945,287.931,138.147,292.713z"/>
	<path fill-rule="evenodd" d="M249.104,69.117c-6.398,21.937-48.387,54.573-48.387,54.573s-3.48-65.56,7.814-82.917
		C219.829,23.417,244.662,0,244.662,0S255.501,47.18,249.104,69.117z"/>
	<path fill-rule="evenodd" d="M137.058,118.512c0.231,21.314,21.438,60.903,21.438,60.903s24.818-55.508,20.27-72.157
		c-4.547-16.647-27.082-47.746-27.082-47.746S136.827,97.199,137.058,118.512z"/>
	<path fill-rule="evenodd" d="M14.015,216.935c-1.985,27.079,8.47,74.999,8.47,74.999s53.053-53.82,42.53-95.155
		c-10.523-41.334-20.427-48.489-20.427-48.489S16,189.856,14.015,216.935z"/>
	<path fill-rule="evenodd" fill="none" stroke="#000000" stroke-width="5" d="M206.335,115.019c0,0-27.144,47.552-83.916,104.365
		C55.594,277.74,1.157,306.168,1.157,306.168"/>
	<path fill-rule="evenodd" d="M130.221,167.862c-2.276-25.648-18.771-52.52-18.771-52.52s-28.889,37.159-27.632,64.756
		c0.318,7.007,0.731,14.772,1.169,22.461c0.335,0.108,0.671,0.217,1.002,0.353c6.97,2.848,10.312,10.808,7.464,17.779
		c-1.362,3.333-3.9,5.824-6.933,7.217c0.712,11.233,1.258,19.17,1.258,19.17S132.497,193.51,130.221,167.862z"/>
	<circle fill-rule="evenodd" cx="80.831" cy="215.532" r="10.733"/>
	<circle fill-rule="evenodd" cx="169.902" cy="215.868" r="9.434"/>
	<circle fill-rule="evenodd" cx="143.124" cy="177.985" r="9.434"/>
	<circle fill-rule="evenodd" cx="226.26" cy="115.982" r="7.839"/>
	<circle fill-rule="evenodd" cx="188.85" cy="100.434" r="7.839"/>
	<circle fill-rule="evenodd" cx="59.624" cy="305.17" r="9.577"/>
	<path fill-rule="evenodd" fill="none" stroke="#000000" stroke-width="3" d="M80.264,217.057c0,0-2.181,10.409-5.504,24.269
		c-3.323,13.859-6.778,21.59-6.778,21.59"/>
	<path fill-rule="evenodd" fill="none" stroke="#000000" stroke-width="3" d="M188.921,100.723c0,0,0.641,8.433,1.262,20.323
		c0.736,14.098-3.378,22.897-3.378,22.897"/>
	<path fill-rule="evenodd" fill="none" stroke="#000000" stroke-width="3" d="M142.909,178.512c0,0,1.475,1.49-5.74,18.584
		c-7.215,17.094-9.539,17.033-9.539,17.033"/>
	<path fill-rule="evenodd" fill="none" stroke="#000000" stroke-width="3" d="M226.26,115.982c0,0-16.907,13.83-23.325,18.938
		c-6.417,5.108-15.23,9.39-15.23,9.39"/>
	<path fill-rule="evenodd" fill="none" stroke="#000000" stroke-width="3" d="M169.902,215.868c0,0-4.941,2.977-26.813,7.786
		c-21.873,4.81-27.657,2.787-27.657,2.787"/>
	<path fill-rule="evenodd" fill="none" stroke="#000000" stroke-width="3" d="M58.945,306.833c0,0-13.009,1.211-28.178,1.42
		c-15.169,0.208-25.602-2.874-25.602-2.874"/>
</g>
</svg>
