<?xml version="1.0" encoding="utf-8"?>
<!-- Generator: Adobe Illustrator 14.0.0, SVG Export Plug-In . SVG Version: 6.00 Build 43363)  -->
<!DOCTYPE svg PUBLIC "-//W3C//DTD SVG 1.1 Tiny//EN" "http://www.w3.org/Graphics/SVG/1.1/DTD/svg11-tiny.dtd">
<svg version="1.1" baseProfile="tiny" id="Layer_1" xmlns="http://www.w3.org/2000/svg" xmlns:xlink="http://www.w3.org/1999/xlink"
	 x="0px" y="0px" width="218.72px" height="325.967px" viewBox="0 0 218.72 325.967" xml:space="preserve">
<g>
	<g>
		<path fill-rule="evenodd" d="M100.337,0c5.942,0,11.884,0,17.826,0c30.116,3.301,51.396,15.233,68.759,32.597
			c16.651,16.651,29.766,40.094,31.578,69.268c1.734,27.92-7.044,48.644-17.317,66.212
			c-30.243,51.721-62.105,107.051-91.678,157.891c-0.17,0-0.34,0-0.51,0c-29.455-51.438-57.994-100.124-87.604-150.76
			C11.521,158.328,1.44,140.638,0,117.654c0-5.772,0-11.545,0-17.317C8.708,42.152,42.221,8.776,100.337,0z M49.914,60.1
			c-11.28,13.001-21.368,32.613-18.845,58.572c4.062,41.797,38.088,75,85.566,71.306c22.574-1.757,39.128-12.944,51.441-26.485
			c12.488-13.732,21.424-33.565,19.355-58.063c-2.009-23.78-12.557-40.612-25.977-52.46c-13.441-11.868-34.066-21.497-59.081-19.354
			C78.842,35.63,61.278,47.002,49.914,60.1z"/>
		<path fill-rule="evenodd" d="M108.486,58.063c6.055,10.414,11.475,21.461,16.808,32.597c11.678,1.904,24.044,3.12,35.653,5.093
			c0.522,1.564-2.94,4.468-5.093,6.621c-6.146,6.146-14.039,13.3-19.864,19.864c2.313,11.778,4.242,23.94,6.622,35.652
			c-11.141-5.327-22.136-10.8-32.597-16.808c-10.907,5.732-21.53,11.746-32.597,17.317c1.468-12.114,3.521-23.644,5.603-35.144
			c-7.357-9.791-19.23-17.78-25.976-26.485c11.441-2.141,23.535-3.628,35.143-5.603C98.399,80.913,103.333,69.377,108.486,58.063z"
			/>
	</g>
</g>
</svg>
