<?xml version="1.0" encoding="utf-8"?>
<!-- Generator: Adobe Illustrator 14.0.0, SVG Export Plug-In . SVG Version: 6.00 Build 43363)  -->
<svg version="1.2" baseProfile="tiny"
	 id="svg2348" xmlns:cc="http://web.resource.org/cc/" xmlns:dc="http://purl.org/dc/elements/1.1/" xmlns:inkscape="http://www.inkscape.org/namespaces/inkscape" xmlns:rdf="http://www.w3.org/1999/02/22-rdf-syntax-ns#" xmlns:sodipodi="http://inkscape.sourceforge.net/DTD/sodipodi-0.dtd" xmlns:svg="http://www.w3.org/2000/svg" inkscape:version="0.41" sodipodi:docbase="/datas/Projs/Cliparts Stocker/tmp/AIGA" sodipodi:version="0.32" sodipodi:docname="AIGA_Restaurant.svg"
	 xmlns="http://www.w3.org/2000/svg" xmlns:xlink="http://www.w3.org/1999/xlink" x="0px" y="0px" width="248.746px"
	 height="472.182px" viewBox="0 0 248.746 472.182" xml:space="preserve">
<sodipodi:namedview  id="base" pagecolor="#ffffff" inkscape:zoom="0.43415836" inkscape:cx="305.25953" bordercolor="#666666" inkscape:cy="417.84947" borderopacity="1.0" inkscape:current-layer="svg2348" inkscape:pageshadow="2" inkscape:pageopacity="0.0" inkscape:window-x="0" inkscape:window-y="26" inkscape:window-width="640" inkscape:window-height="543">
	</sodipodi:namedview>
<g id="g2358">
	<path id="path2360" d="M115.158,154.044c0,15.334-13.97,31.75-32.084,31.75v258.833c0,36.74-50.081,36.74-50.081,0V185.794
		C15.353,185.794,0,172.211,0,151.857V9.419C0-2.98,17.92-3.459,17.92,9.898v105.298h15V8.94c0-11.396,17.25-12.128,17.25,0.479
		v105.777h15.5V9.065c0-11.899,16.75-12.378,16.75,0.479v105.652h15.25V9.065c0-11.774,17.497-12.253,17.497,0.479L115.158,154.044z
		"/>
	<path id="path2362" d="M248.746,42.524v401.977c0,35.933-50.177,35.401-50.177,0V285.006H171.85V42.524
		C171.85-13.921,248.746-13.921,248.746,42.524z"/>
</g>
</svg>
