<?xml version="1.0" encoding="utf-8"?>
<!-- Generator: Adobe Illustrator 14.0.0, SVG Export Plug-In . SVG Version: 6.00 Build 43363)  -->
<!DOCTYPE svg PUBLIC "-//W3C//DTD SVG 1.1 Tiny//EN" "http://www.w3.org/Graphics/SVG/1.1/DTD/svg11-tiny.dtd">
<svg version="1.1" baseProfile="tiny" id="Layer_1" xmlns="http://www.w3.org/2000/svg" xmlns:xlink="http://www.w3.org/1999/xlink"
	 x="0px" y="0px" width="305.631px" height="184.262px" viewBox="0 0 305.631 184.262" xml:space="preserve">
<g>
	<g>
		<g>
			<path fill-rule="evenodd" d="M212.736,41.126c-17.96,13.529-36.428,28.586-63,28.636c-19.496,0.037-35.486-8.18-47.455-16.364
				C82.869,40.125,58.857,12.701,27.009,29.671c-7.716,4.112-11.612,9.809-17.182,9C3.888,37.809-0.218,28.543,0.009,24.762
				C0.761,12.232,35.088-1.173,53.19,0.217c41.515,3.189,53.08,46.763,97.363,45.818c40.225-0.858,57.272-42.5,97.364-45.818
				c19.209-1.59,34.249,5.809,46.636,13.909c2.864,1.873,10.083,6.54,10.637,10.636c0.713,5.281-5.721,15.007-10.637,15.545
				c-6.274,0.687-15.571-9.54-19.636-11.455c-22.693-10.688-49.525,0.238-61.364,12.273
				C213.544,41.136,212.183,44.405,212.736,41.126z"/>
		</g>
	</g>
	<g>
		<g>
			<path fill-rule="evenodd" d="M212.736,97.126c-17.96,13.529-36.428,28.586-63,28.636c-19.496,0.037-35.486-8.18-47.455-16.363
				C82.869,96.125,58.857,68.701,27.009,85.671c-7.716,4.112-11.612,9.809-17.182,9C3.888,93.809-0.218,84.543,0.009,80.762
				c0.752-12.53,35.08-25.936,53.182-24.545c41.515,3.189,53.08,46.763,97.363,45.818c40.225-0.858,57.272-42.5,97.364-45.818
				c19.209-1.59,34.249,5.809,46.636,13.909c2.864,1.873,10.083,6.54,10.637,10.636c0.713,5.281-5.721,15.007-10.637,15.545
				c-6.274,0.687-15.571-9.54-19.636-11.455c-22.693-10.688-49.525,0.238-61.364,12.273
				C213.544,97.136,212.183,100.405,212.736,97.126z"/>
		</g>
	</g>
	<g>
		<g>
			<path fill-rule="evenodd" d="M213.122,155.626c-17.959,13.529-36.427,28.586-63,28.636c-19.496,0.037-35.486-8.18-47.455-16.363
				c-19.413-13.273-43.424-40.697-75.272-23.727c-7.716,4.111-11.612,9.809-17.182,9c-5.939-0.863-10.045-10.129-9.818-13.91
				c0.752-12.529,35.08-25.936,53.182-24.545c41.515,3.189,53.08,46.764,97.363,45.818c40.225-0.858,57.271-42.5,97.363-45.818
				c19.209-1.59,34.25,5.809,46.637,13.909c2.863,1.873,10.082,6.54,10.637,10.636c0.713,5.281-5.721,15.008-10.637,15.546
				c-6.275,0.687-15.572-9.54-19.637-11.454c-22.693-10.688-49.525,0.237-61.363,12.272
				C213.93,155.636,212.569,158.905,213.122,155.626z"/>
		</g>
	</g>
</g>
</svg>
