<?xml version="1.0" encoding="utf-8"?>
<!-- Generator: Adobe Illustrator 14.0.0, SVG Export Plug-In . SVG Version: 6.00 Build 43363)  -->
<!DOCTYPE svg PUBLIC "-//W3C//DTD SVG 1.1 Tiny//EN" "http://www.w3.org/Graphics/SVG/1.1/DTD/svg11-tiny.dtd">
<svg version="1.1" baseProfile="tiny" id="Layer_1" xmlns="http://www.w3.org/2000/svg" xmlns:xlink="http://www.w3.org/1999/xlink"
	 x="0px" y="0px" width="297px" height="318.987px" viewBox="0 0 297 318.987" xml:space="preserve">
<g>
	<g>
		<path fill-rule="evenodd" d="M0,318.987c0-90,0-324,0-315c9,0,14.066-0.281,20.639,2.407
			c9.781,20.734,14.205,41.138,24.155,59.677c4.426,8.247,12.515,16.712,19.182,24.865c39.651,48.489,78.653,94.581,119.354,144.219
			c6.523,7.955,16.38,15.728,19.893,23.444c4.279,9.399,5.127,20.863,7.814,30.549c2.731,9.842,11.601,19.764,13.964,29.839
			c-54.939,0-113.671,0-171,0"/>
		<path fill-rule="evenodd" d="M143.545,22.023c-8.105,2.315-13.779,7.061-22.024,9.236c-2.252-8.167-6.922-13.917-9.236-22.023
			c7.552-2.395,13.861-6.031,20.603-9.236C137.588,6.193,140.673,14.002,143.545,22.023z"/>
		<path fill-rule="evenodd" d="M76.053,38.364c12.468,3.635,23.892,8.315,36.232,12.077c-4.15,11.953-8.232,23.974-12.077,36.232
			c-12.103-4.001-23.741-8.465-36.232-12.077C67.626,62.143,72.429,50.843,76.053,38.364z"/>
		<path fill-rule="evenodd" d="M179.066,59.677c1.165,21.105,4.321,43.977,4.973,63.229c-8.174,0.442-15.622,1.224-23.444,2.131
			c-7.394,0.858-16.656,4.498-22.734,2.842c-4.132-1.126-8.171-9.495-10.657-12.788c-3.71-4.915-6.75-8.725-9.946-12.788
			c-0.792-12.944-3.336-24.134-4.263-36.943C135.687,64.133,156.609,61.137,179.066,59.677z"/>
		<path fill-rule="evenodd" d="M154.201,152.034c-5.629,4.554-11.419,8.946-23.444,7.104c0-6.157,0-12.314,0-18.471
			c1.725-3.722,6.473-4.42,8.525-7.815C145.166,138.335,149.767,145.102,154.201,152.034z"/>
		<path fill-rule="evenodd" d="M246.559,156.296c-4.477,9.732-10.893,17.525-15.63,26.997c-17.104,5.562-24.531-6.464-36.232-12.077
			c4.862-9.11,10.526-17.418,15.63-26.286C226.554,137.997,235.006,150.733,246.559,156.296z"/>
		<path fill-rule="evenodd" d="M204.643,203.896c13.731,2.372,27.923,4.283,42.626,5.684c-2.216,14.36-3.731,29.421-5.684,44.047
			c-9.571-1.795-19.52-3.213-29.838-4.262c-1.989-7.4-10.316-13.668-11.367-22.024C199.45,219.95,204.355,212.522,204.643,203.896z"
			/>
		<path fill-rule="evenodd" d="M297,294.122c0,8.288,0,16.576,0,24.865c-12.552,0-25.103,0-37.653,0
			c1.386-9.899-1.937-17.593,0-24.865c2.108-7.922,11.886-11.354,15.629-17.051C282.262,282.81,289.869,288.228,297,294.122z"/>
	</g>
</g>
</svg>
