<?xml version="1.0" encoding="iso-8859-1"?>
<!-- Generator: Adobe Illustrator 19.0.0, SVG Export Plug-In . SVG Version: 6.00 Build 0)  -->
<svg version="1.1" id="Layer_1" xmlns="http://www.w3.org/2000/svg" xmlns:xlink="http://www.w3.org/1999/xlink" x="0px" y="0px"
	 viewBox="0 0 512.002 512.002" style="enable-background:new 0 0 512.002 512.002;" xml:space="preserve">
<g>
	<g>
		<g>
			<path d="M256.001,127.997c11.776,0,21.333-9.557,21.333-21.333s-9.557-21.333-21.333-21.333s-21.333,9.557-21.333,21.333
				S244.225,127.997,256.001,127.997z"/>
			<path d="M511.947,489.143l-21.333-298.667c-0.797-11.164-10.087-19.813-21.279-19.813h-85.333
				c-11.782,0-21.333,9.551-21.333,21.333s9.551,21.333,21.333,21.333h65.469l18.286,256H44.246l18.286-256h65.469
				c11.782,0,21.333-9.551,21.333-21.333s-9.551-21.333-21.333-21.333H42.668c-11.192,0-20.482,8.65-21.279,19.813L0.055,489.143
				c-0.882,12.349,8.898,22.853,21.279,22.853h469.333C503.048,511.997,512.829,501.493,511.947,489.143z"/>
			<path d="M163.565,159.577c9.439,18.438,13.341,26.698,16.989,36.728l55.803,132.004c4.019,9.501,13.204,13.79,21.903,12.894
				c1.039,0.193,2.095,0.336,3.183,0.374c4.629,0.149,9.088,0.213,13.419,0.213c11.221,0,21.973-0.491,31.979-1.493
				c11.712-1.173,20.288-11.605,19.115-23.339c-1.173-11.733-11.669-20.309-23.339-19.115c-4.651,0.455-9.491,0.788-14.517,1.002
				l43.195-102.258c4.029-10.979,7.908-19.134,17.095-36.941c1.45-2.81,1.45-2.81,2.668-5.179
				c12.483-24.316,15.184-52.175,6.742-79.895c-10.907-35.757-40.902-63.651-77.319-71.836
				c-68.155-15.311-131.142,35.711-131.142,103.929c0,16.7,3.971,32.82,11.462,47.5
				C162.183,156.876,162.183,156.876,163.565,159.577z M271.127,44.365c21.427,4.816,39.426,21.554,45.86,42.647
				c5.176,16.996,3.584,33.419-3.885,47.969c-1.186,2.306-1.186,2.306-2.388,4.636c-10.247,19.862-14.658,29.135-19.115,41.365
				l-35.601,84.235l-35.747-84.515c-4.048-11.211-8.472-20.576-18.382-39.935l-0.324-0.634c-1.374-2.683-1.374-2.683-2.727-5.339
				c-4.475-8.769-6.811-18.255-6.811-28.129C192.005,65.661,229.766,35.074,271.127,44.365z"/>
			<path d="M125.273,365.876c-10.667-4.864-23.381-0.149-28.245,10.581c-11.136,24.427-11.691,46.101-11.691,50.197
				c0,11.797,9.536,21.333,21.333,21.333c11.797,0,21.333-9.536,21.333-21.333c0-0.619,0.085-15.467,7.851-32.512
				C140.739,383.434,136.003,370.762,125.273,365.876z"/>
			<path d="M347.182,312.436c3.819,7.275,11.243,11.435,18.923,11.435c3.328,0,6.72-0.789,9.899-2.432
				c17.259-9.067,30.635-20.928,39.765-35.221c6.315-9.941,3.392-23.125-6.549-29.461c-9.877-6.315-23.104-3.392-29.44,6.528
				c-5.077,7.957-13.013,14.805-23.616,20.352C345.731,289.119,341.699,302.026,347.182,312.436z"/>
			<path d="M158.766,360.095c3.627,0,7.317-0.939,10.688-2.88c9.579-5.568,20.843-9.749,33.451-12.437
				c11.541-2.453,18.859-13.781,16.427-25.301c-2.475-11.541-13.824-18.901-25.301-16.427c-17.024,3.627-32.512,9.429-45.995,17.259
				c-10.176,5.909-13.653,18.965-7.744,29.141C144.259,356.276,151.427,360.095,158.766,360.095z"/>
		</g>
	</g>
</g>
<g>
</g>
<g>
</g>
<g>
</g>
<g>
</g>
<g>
</g>
<g>
</g>
<g>
</g>
<g>
</g>
<g>
</g>
<g>
</g>
<g>
</g>
<g>
</g>
<g>
</g>
<g>
</g>
<g>
</g>
</svg>
