<?xml version="1.0" encoding="utf-8"?>
<!-- Generator: Adobe Illustrator 14.0.0, SVG Export Plug-In . SVG Version: 6.00 Build 43363)  -->
<!DOCTYPE svg PUBLIC "-//W3C//DTD SVG 1.1 Tiny//EN" "http://www.w3.org/Graphics/SVG/1.1/DTD/svg11-tiny.dtd">
<svg version="1.1" baseProfile="tiny" id="Layer_1" xmlns="http://www.w3.org/2000/svg" xmlns:xlink="http://www.w3.org/1999/xlink"
	 x="0px" y="0px" width="321.351px" height="319.536px" viewBox="0 0 321.351 319.536" xml:space="preserve">
<g>
	<g>
		<path fill-rule="evenodd" d="M181.059,58.979c3.588,20.129,6.359,41.076,10.165,60.988c7.874-3.09,15.462-8.657,24.141-13.977
			c7.327-4.491,16.629-12.993,25.412-13.341c6.691-0.265,15.018,4.705,21.601,7.624c13.466,5.97,26.307,11.631,40.023,17.788
			c5.093,2.287,14.61,6.542,17.152,11.436c5.589,10.757-2.624,23.93-13.977,24.141c-9.508,0.177-23.649-9.08-31.765-12.706
			c-11.046-4.936-20.198-8.546-31.129-13.341c-16.136,8.429-30.503,18.626-46.377,27.317c9.623,5.957,29.085,4.743,34.306,14.612
			c2.586,4.886,2.327,12.744,3.177,19.059c0.883,6.553,1.705,12.849,2.541,19.059c1.666,12.373,6.354,29.695,3.177,38.753
			c-4.436,12.643-25.575,12.154-30.494,0c-2.771-6.848-2.573-18.024-3.812-27.318c-1.373-10.296-2.551-20.241-3.177-27.953
			c-19.982-9.753-49.935-6.556-58.447-27.318c-3.581-8.733-3.968-20.123-5.718-30.494c-1.661-9.841-3.993-19.958-5.083-30.494
			c-9.847,8.577-15.264,21.583-26.047,29.224c-11.822-1.416-30.499-3.736-44.471-5.082c-10.506-1.013-20.191-0.153-22.235-8.895
			c-1.575-6.734,1.545-13.563,6.988-15.247c5.829-1.803,16.892,1.581,24.776,2.542C80.861,106.46,89.29,107,97.2,108.531
			c7.237-7.258,13.294-15.938,20.329-25.412c6.054-8.153,11.5-18.688,19.059-26.047c5.004-4.872,15.867-10.106,23.506-14.611
			c15.522-9.155,32.963-18.97,48.282-27.953c8.189-4.802,16.103-11.084,24.777-13.977c8.229-2.744,17.067,5.56,15.247,15.247
			c-1.703,9.056-25.165,18.628-32.4,22.871C203.393,46.042,192.926,52.642,181.059,58.979z"/>
		<path fill-rule="evenodd" d="M111.812,6.884c16.583-3.036,29.194,8.542,31.13,20.33c6.114,37.234-49.2,40.976-52.094,7.624
			c-1.032-11.89,3.888-17.733,6.988-20.965C100.719,10.866,105.626,8.017,111.812,6.884z"/>
		<path fill-rule="evenodd" d="M261,319.449c-84.981-0.484-174.039,0.347-261,0c0.18-61.231,0-126,0-189"/>
	</g>
</g>
</svg>
