<?xml version="1.0" encoding="utf-8"?>
<!-- Generator: Adobe Illustrator 14.0.0, SVG Export Plug-In . SVG Version: 6.00 Build 43363)  -->
<svg version="1.2" baseProfile="tiny"
	 id="svg10" xmlns:dc="http://purl.org/dc/elements/1.1/" xmlns:cc="http://creativecommons.org/ns#" xmlns:rdf="http://www.w3.org/1999/02/22-rdf-syntax-ns#" xmlns:svg="http://www.w3.org/2000/svg" xmlns:sodipodi="http://sodipodi.sourceforge.net/DTD/sodipodi-0.dtd" xmlns:inkscape="http://www.inkscape.org/namespaces/inkscape" sodipodi:docname="noun_370530_cc.svg" inkscape:version="0.92.1 r15371"
	 xmlns="http://www.w3.org/2000/svg" xmlns:xlink="http://www.w3.org/1999/xlink" x="0px" y="0px" width="130.402px"
	 height="127.2px" viewBox="10 10.005 130.402 127.2" xml:space="preserve">
<sodipodi:namedview  id="namedview12" objecttolerance="10" fit-margin-left="10" gridtolerance="10" guidetolerance="10" pagecolor="#ffffff" inkscape:zoom="1.888" showgrid="false" bordercolor="#666666" borderopacity="1" inkscape:cx="74.902279" inkscape:cy="60.991103" fit-margin-top="10" inkscape:pageopacity="0" inkscape:pageshadow="2" inkscape:window-width="640" inkscape:window-height="480" fit-margin-right="10" fit-margin-bottom="9.9" inkscape:window-x="0" inkscape:window-y="0" inkscape:current-layer="svg10" inkscape:window-maximized="0">
	</sodipodi:namedview>
<g id="XMLID_1_">
	<g>
		<path fill="#231F20" d="M140.231,58.434c0.45,1.22,0,2.59-1.181,3.5l-36.739,27.18l14.069,44.181c0.449,1.221,0,2.58-1.029,3.34
			c-1.189,0.761-2.521,0.761-3.561,0L75.05,109.155l-36.73,27.33c-0.6,0.46-1.19,0.61-1.78,0.61s-1.19-0.15-1.78-0.61
			c-1.04-0.76-1.48-2.12-1.04-3.34L47.8,88.965l-36.59-27.18c-1.04-0.76-1.48-2.13-1.04-3.35c0.45-1.21,1.48-2.12,2.82-2.12h45.32
			l14.08-44.19c0.22-0.609,0.59-1.13,1.07-1.51s1.08-0.61,1.74-0.61c1.33,0,2.37,0.91,2.82,2.12l14.069,44.19h45.33
			C138.751,56.313,139.791,57.224,140.231,58.434z M97.13,85.464l31.102-23.08H89.873c-1.34,0-2.371-0.909-2.82-2.119l-11.85-37.511
			l-12,37.511c-0.44,1.21-1.48,2.119-2.81,2.119h-38.22l31.11,23.08c1.03,0.761,1.48,2.13,1.03,3.341l-11.85,37.51l31.11-23.08
			c1.04-0.76,2.37-0.76,3.41,0l30.96,23.08l-11.851-37.51C95.642,87.594,96.091,86.224,97.13,85.464z"/>
		<path fill="#231F20" d="M128.231,62.384L97.13,85.464c-1.041,0.761-1.489,2.13-1.041,3.341l11.852,37.51l-30.96-23.08
			c-1.04-0.76-2.37-0.76-3.41,0l-31.11,23.08l11.85-37.51c0.45-1.211,0-2.58-1.03-3.341l-31.11-23.08h38.22
			c1.33,0,2.37-0.909,2.81-2.119l12-37.511L87.05,60.264c0.451,1.21,1.48,2.119,2.82,2.119H128.231L128.231,62.384z"/>
	</g>
</g>
</svg>
