<?xml version="1.0" encoding="utf-8"?>
<!-- Generator: Adobe Illustrator 14.0.0, SVG Export Plug-In . SVG Version: 6.00 Build 43363)  -->
<svg version="1.2" baseProfile="tiny"
	 id="svg10" xmlns:dc="http://purl.org/dc/elements/1.1/" xmlns:cc="http://creativecommons.org/ns#" xmlns:rdf="http://www.w3.org/1999/02/22-rdf-syntax-ns#" xmlns:svg="http://www.w3.org/2000/svg" xmlns:sodipodi="http://sodipodi.sourceforge.net/DTD/sodipodi-0.dtd" xmlns:inkscape="http://www.inkscape.org/namespaces/inkscape" sodipodi:docname="noun_370530_cc.svg" inkscape:version="0.92.1 r15371"
	 xmlns="http://www.w3.org/2000/svg" xmlns:xlink="http://www.w3.org/1999/xlink" x="0px" y="0px" width="131.402px"
	 height="128.201px" viewBox="9.5 9.506 131.402 128.201" xml:space="preserve">
<sodipodi:namedview  id="namedview12" borderopacity="1" bordercolor="#666666" showgrid="false" inkscape:zoom="1.888" pagecolor="#ffffff" guidetolerance="10" fit-margin-top="10" gridtolerance="10" inkscape:cy="60.991103" fit-margin-left="10" objecttolerance="10" inkscape:cx="74.902279" inkscape:current-layer="svg10" inkscape:window-y="0" inkscape:window-x="0" fit-margin-bottom="9.9" fit-margin-right="10" inkscape:window-height="480" inkscape:window-width="640" inkscape:pageshadow="2" inkscape:pageopacity="0" inkscape:window-maximized="0">
	</sodipodi:namedview>
<path stroke="#231F20" d="M140.231,58.434c0.45,1.22,0,2.59-1.181,3.5l-36.739,27.18l14.069,44.182c0.449,1.221,0,2.58-1.029,3.34
	c-1.189,0.762-2.521,0.762-3.561,0l-36.74-27.479l-36.73,27.329c-0.6,0.461-1.19,0.611-1.78,0.611s-1.19-0.15-1.78-0.611
	c-1.04-0.76-1.48-2.118-1.04-3.34l14.08-44.18l-36.59-27.18c-1.04-0.76-1.48-2.13-1.04-3.35c0.45-1.21,1.48-2.12,2.82-2.12h45.32
	l14.08-44.19c0.22-0.609,0.59-1.13,1.07-1.51c0.479-0.38,1.08-0.61,1.74-0.61c1.328,0,2.368,0.91,2.818,2.12l14.068,44.19h45.33
	C138.751,56.313,139.791,57.224,140.231,58.434z"/>
</svg>
