<?xml version="1.0" encoding="utf-8"?>
<!-- Generator: Adobe Illustrator 14.0.0, SVG Export Plug-In . SVG Version: 6.00 Build 43363)  -->
<!DOCTYPE svg PUBLIC "-//W3C//DTD SVG 1.1 Tiny//EN" "http://www.w3.org/Graphics/SVG/1.1/DTD/svg11-tiny.dtd">
<svg version="1.1" baseProfile="tiny" id="Layer_1" xmlns="http://www.w3.org/2000/svg" xmlns:xlink="http://www.w3.org/1999/xlink"
	 x="0px" y="0px" width="267.981px" height="311.38px" viewBox="0 0 267.981 311.38" xml:space="preserve">
<g>
	<path d="M260.039,299.815c-23.706-19.746-65.818-68.212-80.914-170.862c-5.258,11.663-23.835,20.28-45.946,20.28
		c-22.11,0-40.687-8.617-45.945-20.28C72.139,231.6,30.028,280.066,6.323,299.812c-10.03,8.355-5.123,11.568-5.123,11.568h131.979
		h134.57C267.75,311.38,270.067,308.168,260.039,299.815z"/>
	<path fill-rule="evenodd" fill="none" stroke="#000000" stroke-width="15" stroke-linecap="round" d="M131.292,125.779
		c0,0-1.046-44.23,8.792-68.178c5.018-15.437,23.647-28.751,23.647-28.751"/>
	<path fill-rule="evenodd" fill="none" stroke="#000000" stroke-width="15" stroke-linecap="round" d="M152.387,124.244
		c0,0-2.161-15.401,6.173-33.403s25.671-16.021,25.671-16.021"/>
	<path fill-rule="evenodd" fill="none" stroke="#000000" stroke-width="15" stroke-linecap="round" d="M113.125,124.244
		c0,0,1.07-29.4-8.996-45.318c-5.134-10.261-24.195-19.111-24.195-19.111"/>
	<ellipse fill-rule="evenodd" cx="53.146" cy="42.062" rx="11.656" ry="13.211"/>
	<path fill-rule="evenodd" d="M220.547,68.484c0,7.296-3.275,7.522-11.656,13.211s-11.656-5.916-11.656-13.211
		c0-7.297,5.219-13.211,11.656-13.211S220.547,61.188,220.547,68.484z"/>
	<path fill-rule="evenodd" d="M196.46,13.211c0,7.296-5.219,13.211-11.654,13.211c-6.438,0-11.656-5.916-11.656-13.211
		C173.15,5.915,178.369,0,184.806,0C191.242,0,199.88-0.115,196.46,13.211z"/>
</g>
</svg>
