<?xml version="1.0" encoding="utf-8"?>
<!-- Generator: Adobe Illustrator 14.0.0, SVG Export Plug-In . SVG Version: 6.00 Build 43363)  -->
<!DOCTYPE svg PUBLIC "-//W3C//DTD SVG 1.1 Tiny//EN" "http://www.w3.org/Graphics/SVG/1.1/DTD/svg11-tiny.dtd">
<svg version="1.1" baseProfile="tiny" id="Layer_3" xmlns="http://www.w3.org/2000/svg" xmlns:xlink="http://www.w3.org/1999/xlink"
	 x="0px" y="0px" width="284px" height="253px" viewBox="0 0 284 253" xml:space="preserve">
<polygon fill-rule="evenodd" fill="none" stroke="#000000" stroke-width="20" stroke-linejoin="round" points="142.009,11.089 
	207.772,124.995 273.536,238.9 142.009,238.9 10.481,238.9 76.245,124.995 "/>
<path fill-rule="evenodd" d="M207.772,124.995L142.009,11.089L76.245,124.995L10.481,238.9h131.527h131.527L207.772,124.995z
	 M158.594,84.313l-4.199,97.168h-26.66l-4.199-97.168H158.594z M153.857,223.619c-3.483,3.092-7.829,4.639-13.037,4.639
	c-5.209,0-9.555-1.547-13.037-4.639c-3.483-3.092-5.225-7.047-5.225-11.865c0-4.817,1.741-8.772,5.225-11.865
	c3.482-3.091,7.828-4.639,13.037-4.639c5.208,0,9.554,1.547,13.037,4.639c3.482,3.093,5.225,7.048,5.225,11.865
	C159.082,216.572,157.339,220.527,153.857,223.619z"/>
</svg>
