<?xml version="1.0" encoding="utf-8"?>
<!-- Generator: Adobe Illustrator 14.0.0, SVG Export Plug-In . SVG Version: 6.00 Build 43363)  -->
<!DOCTYPE svg PUBLIC "-//W3C//DTD SVG 1.1 Tiny//EN" "http://www.w3.org/Graphics/SVG/1.1/DTD/svg11-tiny.dtd">
<svg version="1.1" baseProfile="tiny" id="Layer_3" xmlns="http://www.w3.org/2000/svg" xmlns:xlink="http://www.w3.org/1999/xlink"
	 x="0px" y="0px" width="333.456px" height="299px" viewBox="0 0 333.456 299" xml:space="preserve">
<g>
	<path fill-rule="evenodd" fill="none" stroke="#000000" stroke-width="20" d="M278.456,127c-3.928,0-7.737,0.506-11.369,1.452
		C259.298,101.688,233.098,82,201.956,82c-30.612,0-56.449,19.025-64.717,45.094c-0.921-0.057-1.847-0.094-2.783-0.094
		c-24.853,0-45,20.147-45,45s20.147,45,45,45h144c24.853,0,45-20.147,45-45S303.309,127,278.456,127z"/>
	<line fill="none" stroke="#000000" stroke-width="20" stroke-linecap="round" x1="152.456" y1="244" x2="134.456" y2="289"/>
	<line fill="none" stroke="#000000" stroke-width="20" stroke-linecap="round" x1="197.456" y1="244" x2="179.456" y2="289"/>
	<line fill="none" stroke="#000000" stroke-width="20" stroke-linecap="round" x1="242.456" y1="244" x2="224.456" y2="289"/>
	<path d="M88.949,123.11c14.493-13,32.007-15.322,32.007-15.322s10.033-18.587,28.649-32.526C139.709,62.915,124.511,55,107.456,55
		c-29.824,0-54,24.176-54,54c0,17.103,7.959,32.337,20.366,42.231C76.195,142.358,80.716,130.495,88.949,123.11z"/>
	<line fill="none" stroke="#000000" stroke-width="20" stroke-linecap="round" x1="107.456" y1="37" x2="107.456" y2="10"/>
	<line fill="none" stroke="#000000" stroke-width="20" stroke-linecap="round" x1="152.456" y1="51.563" x2="170.456" y2="31.438"/>
	<line fill="none" stroke="#000000" stroke-width="20" stroke-linecap="round" x1="55.323" y1="57.714" x2="35.589" y2="39.286"/>
	<line fill="none" stroke="#000000" stroke-width="20" stroke-linecap="round" x1="35.456" y1="177.563" x2="53.456" y2="157.438"/>
	<line fill="none" stroke="#000000" stroke-width="20" stroke-linecap="round" x1="35.456" y1="109" x2="10" y2="109"/>
</g>
</svg>
