<?xml version="1.0" standalone="no"?>
<!DOCTYPE svg PUBLIC "-//W3C//DTD SVG 20010904//EN"
 "http://www.w3.org/TR/2001/REC-SVG-20010904/DTD/svg10.dtd">
<svg version="1.0" xmlns="http://www.w3.org/2000/svg"
 width="1190.000000pt" height="1190.000000pt" viewBox="0 0 1190.000000 1190.000000"
 preserveAspectRatio="xMidYMid meet">
<metadata>
Created by potrace 1.14, written by Peter Selinger 2001-2017
</metadata>
<g transform="translate(0.000000,1190.000000) scale(0.100000,-0.100000)"
fill="#000000" stroke="none">
<path d="M6948 11895 c-1 -1 -21 -5 -43 -8 -22 -3 -57 -10 -77 -15 -21 -6 -38
-8 -38 -5 0 3 -7 -1 -17 -8 -9 -8 -18 -13 -20 -11 -6 4 -58 -10 -70 -21 -7 -5
-13 -7 -13 -4 0 15 -223 -107 -258 -140 -7 -7 -17 -13 -20 -13 -9 0 -147 -134
-182 -175 -35 -43 -111 -155 -104 -155 3 0 -1 -7 -9 -15 -19 -18 -74 -151 -98
-233 -32 -111 -42 -186 -41 -312 1 -111 7 -170 28 -254 18 -75 18 -75 32 -109
7 -16 12 -31 12 -35 0 -12 84 -177 92 -180 5 -2 8 -10 8 -18 0 -8 5 -14 10
-14 6 0 10 -5 10 -11 0 -35 188 -225 293 -295 119 -80 287 -153 393 -170 22
-3 44 -7 49 -8 6 -1 15 -4 20 -8 12 -7 303 -3 361 6 58 8 215 60 293 98 214
101 409 297 515 516 42 85 82 200 91 262 1 8 6 38 11 65 9 56 9 272 -1 325 -3
19 -8 46 -11 60 -3 14 -6 32 -8 40 -3 16 -23 83 -35 115 -18 50 -115 236 -132
254 -10 11 -19 25 -19 30 0 6 -9 16 -20 23 -11 7 -20 17 -20 22 0 16 -154 161
-215 201 -130 87 -280 156 -370 170 -11 2 -42 9 -70 15 -44 11 -318 24 -327
15z"/>
<path d="M3788 9675 c-2 -1 -32 -6 -68 -9 -71 -7 -210 -30 -217 -36 -2 -2 -11
-3 -20 -4 -10 -1 -22 -4 -28 -7 -5 -4 -26 -10 -45 -14 -83 -17 -266 -88 -376
-145 -82 -44 -149 -84 -152 -92 -2 -4 -8 -8 -13 -8 -9 0 -124 -82 -187 -133
-65 -53 -280 -277 -266 -277 4 0 -2 -8 -12 -17 -61 -55 -254 -403 -254 -457 0
-9 -5 -16 -10 -16 -6 0 -9 -3 -9 -7 1 -5 0 -10 -1 -13 -1 -3 -3 -12 -5 -20 -2
-8 -15 -55 -29 -104 -14 -48 -28 -98 -30 -110 -2 -11 -18 -73 -36 -136 -17
-63 -32 -124 -34 -135 -2 -11 -6 -30 -10 -42 -4 -12 -9 -30 -11 -40 -2 -10
-16 -63 -30 -118 -25 -94 -63 -242 -70 -275 -2 -8 -4 -15 -5 -15 -1 0 -3 -9
-5 -20 -3 -11 -23 -90 -45 -175 -23 -85 -43 -166 -46 -180 -3 -14 -14 -54 -24
-90 -10 -36 -21 -76 -24 -90 -3 -14 -10 -43 -16 -65 -6 -22 -12 -47 -14 -55
-2 -8 -14 -53 -26 -100 -12 -47 -23 -92 -25 -100 -2 -8 -13 -51 -25 -95 -12
-44 -24 -89 -26 -100 -2 -11 -13 -56 -25 -100 -12 -44 -22 -87 -23 -95 -1 -9
-5 -20 -9 -27 -4 -6 -8 -23 -9 -37 -1 -14 -6 -26 -11 -26 -4 0 -6 -4 -3 -8 3
-5 -1 -30 -9 -57 -22 -70 -14 -178 18 -245 51 -110 140 -177 283 -213 49 -12
95 -26 102 -31 7 -4 16 -6 18 -3 3 3 20 1 37 -4 18 -6 43 -12 57 -15 14 -3 39
-9 55 -14 17 -5 41 -11 55 -14 14 -2 45 -9 70 -15 25 -7 54 -14 65 -16 11 -3
49 -12 84 -21 36 -9 72 -17 81 -19 9 -2 45 -10 81 -19 35 -9 74 -18 87 -21 12
-3 31 -7 42 -10 11 -3 29 -7 40 -10 11 -3 30 -8 43 -11 12 -3 31 -7 42 -9 11
-2 58 -13 105 -25 47 -12 94 -24 105 -26 37 -7 59 -13 145 -34 113 -29 120
-31 155 -35 17 -2 30 -4 30 -5 0 -8 73 -4 123 6 103 21 197 86 253 174 9 14
30 75 47 135 34 122 92 341 97 366 2 8 18 69 35 135 18 65 33 129 35 141 2 12
6 27 10 32 3 6 8 23 10 38 2 16 11 53 20 83 9 30 18 66 21 80 3 14 9 39 15 56
5 17 12 41 14 53 3 11 7 29 10 39 2 9 12 46 20 82 21 83 21 82 27 100 3 8 13
44 22 80 9 36 18 70 20 75 1 6 11 47 21 93 11 45 23 82 28 82 4 0 6 4 3 8 -3
4 9 60 25 123 17 62 32 121 34 129 2 8 13 53 25 100 12 47 24 92 25 100 2 8 4
15 5 15 2 0 7 22 15 60 3 17 10 44 15 60 9 30 79 297 85 325 2 8 4 16 5 18 3
2 3 2 15 57 4 22 10 45 11 50 5 15 45 168 50 185 2 8 11 42 20 75 9 33 17 67
19 75 2 8 8 35 15 60 7 25 14 53 16 62 9 41 13 57 32 126 12 39 18 72 15 72
-3 0 -1 6 4 13 6 6 11 19 11 27 1 8 17 74 37 145 20 72 37 139 39 150 2 11 6
27 9 35 26 70 27 189 2 256 -45 126 -145 209 -293 242 -48 11 -107 23 -132 27
-25 4 -58 9 -75 11 -33 5 -372 13 -377 9z"/>
<path d="M6347 8924 c-1 -1 -27 -4 -57 -8 -155 -18 -321 -66 -455 -133 -65
-32 -219 -129 -254 -160 -66 -58 -184 -178 -211 -216 -18 -26 -37 -47 -42 -47
-5 0 -7 -4 -4 -9 4 -5 2 -11 -2 -13 -14 -5 -96 -149 -131 -228 -29 -65 -54
-137 -67 -189 -2 -9 -11 -43 -20 -76 -9 -33 -18 -67 -18 -75 -1 -9 -5 -21 -10
-28 -4 -6 -5 -12 -2 -12 3 0 1 -11 -4 -25 -5 -14 -12 -36 -14 -48 -8 -38 -13
-57 -66 -267 -50 -199 -56 -221 -64 -258 -2 -9 -9 -37 -16 -62 -7 -25 -13 -52
-15 -60 -2 -8 -13 -53 -25 -100 -12 -47 -23 -92 -25 -100 -2 -8 -17 -71 -35
-140 -18 -69 -34 -133 -36 -142 -8 -33 -12 -53 -44 -178 -18 -69 -34 -133 -36
-142 -2 -10 -6 -26 -8 -35 -2 -10 -18 -74 -36 -143 -18 -69 -34 -133 -36 -142
-2 -10 -6 -26 -8 -35 -2 -10 -32 -128 -66 -263 -73 -288 -70 -271 -70 -385 -1
-92 1 -105 18 -169 6 -20 8 -36 6 -36 -2 0 4 -17 15 -39 11 -21 17 -41 14 -45
-4 -3 -2 -6 4 -6 5 0 10 -6 10 -13 0 -8 17 -43 38 -78 30 -51 252 -278 1064
-1091 564 -565 1027 -1032 1029 -1038 2 -6 8 -8 12 -5 13 8 29 -57 19 -77 -6
-10 -5 -19 1 -23 7 -4 6 -13 -1 -26 -7 -14 -7 -24 0 -33 6 -7 8 -15 5 -19 -7
-7 -8 -236 -1 -244 4 -3 2 -14 -4 -25 -7 -13 -7 -23 0 -32 6 -7 8 -16 5 -19
-8 -7 -7 -187 0 -194 3 -3 1 -14 -4 -24 -7 -12 -7 -20 0 -24 7 -4 6 -13 -1
-26 -7 -14 -7 -24 0 -33 6 -7 8 -15 5 -18 -7 -8 -8 -217 -1 -224 3 -3 2 -17
-3 -30 -6 -14 -6 -26 0 -29 6 -4 6 -14 -1 -27 -7 -14 -8 -23 -1 -30 7 -7 7
-19 2 -34 -6 -14 -6 -26 0 -29 6 -4 6 -14 -1 -26 -7 -14 -7 -24 0 -33 6 -7 8
-15 5 -19 -7 -7 -6 -690 1 -730 3 -15 7 -39 9 -54 10 -65 51 -181 69 -194 5
-3 8 -10 7 -15 -6 -22 180 -244 204 -244 3 0 29 -17 58 -37 29 -21 54 -37 55
-35 2 1 16 -4 31 -11 15 -8 45 -20 67 -26 22 -7 47 -15 55 -18 30 -11 77 -16
180 -16 115 0 160 5 203 22 16 6 33 11 39 11 19 0 178 80 178 90 0 5 8 11 18
14 31 10 134 115 188 192 35 50 81 156 100 234 18 71 19 132 19 1160 -1 597
-4 1107 -9 1135 -4 27 -14 76 -21 109 -8 33 -12 63 -9 68 3 4 0 8 -5 8 -6 0
-11 13 -11 29 0 17 -4 32 -9 35 -5 3 -12 18 -15 33 -12 50 -58 158 -75 177 -9
10 -15 20 -13 22 3 5 -45 102 -59 118 -5 6 -37 49 -72 96 -41 57 -253 276
-643 666 -428 428 -579 585 -573 596 4 8 10 25 13 39 2 13 20 88 40 166 20 78
38 152 40 165 3 13 5 23 7 23 1 0 3 9 5 20 2 11 22 92 44 180 23 88 44 168 46
178 2 9 6 25 8 35 2 9 12 46 21 82 17 64 20 79 30 121 2 11 7 29 10 39 3 10 8
28 10 39 7 29 19 80 59 236 1 6 13 55 26 110 14 55 27 102 30 105 3 3 6 14 7
25 1 22 5 40 23 105 7 25 14 54 16 65 1 11 3 22 5 25 1 3 3 10 4 15 1 6 7 29
13 52 l12 41 288 -284 c335 -333 315 -314 330 -314 7 0 12 -4 12 -9 0 -10 131
-76 182 -92 113 -36 148 -38 747 -39 327 0 597 -3 600 -6 3 -3 6 -1273 7
-2822 1 -1549 4 -2828 7 -2842 31 -123 141 -232 264 -264 71 -19 480 -23 548
-5 22 5 45 11 50 12 58 16 185 120 185 152 0 8 4 15 9 15 5 0 15 17 22 38 7
20 15 44 18 52 3 8 6 1727 6 3820 l0 3805 -29 60 c-52 105 -167 194 -273 210
-58 9 -297 10 -310 2 -7 -4 -14 -4 -17 1 -6 10 -56 9 -73 -1 -6 -4 -14 -3 -18
3 -4 6 -11 8 -16 4 -6 -3 -27 -7 -47 -8 -107 -7 -229 -88 -279 -185 -10 -20
-22 -39 -28 -43 -5 -4 -7 -8 -4 -8 3 0 1 -21 -6 -47 -7 -30 -11 -124 -11 -251
1 -195 0 -202 -19 -203 -73 -3 -786 -1 -790 2 -2 2 -262 261 -577 574 -549
547 -662 655 -687 655 -6 0 -11 3 -11 8 0 7 -55 42 -143 91 -78 44 -240 104
-327 121 -25 5 -54 11 -65 14 -62 13 -327 29 -338 20z"/>
<path d="M4155 4053 c-10 -43 -20 -82 -21 -88 -6 -19 -26 -100 -29 -115 -2 -8
-11 -42 -20 -75 -9 -33 -18 -71 -20 -85 -2 -14 -4 -26 -5 -27 -1 -2 -4 -7 -5
-13 -1 -5 -3 -11 -5 -12 -2 -3 -5 -19 -13 -61 -3 -15 -13 -53 -22 -84 -9 -30
-14 -58 -11 -61 3 -3 2 -10 -3 -16 -6 -7 -13 -25 -16 -41 -8 -40 -13 -60 -15
-60 -1 0 -3 -10 -6 -23 -2 -12 -13 -59 -25 -104 -12 -45 -22 -87 -23 -92 -1
-6 -5 -20 -9 -31 -3 -11 -8 -31 -11 -45 -4 -20 -44 -180 -71 -290 -10 -37 -57
-227 -60 -240 -2 -8 -29 -114 -59 -235 -31 -121 -58 -232 -61 -247 -3 -15 -9
-38 -14 -51 -6 -14 -7 -28 -4 -31 4 -3 1 -6 -6 -6 -7 0 -10 -3 -7 -8 2 -4 -2
-32 -10 -62 -9 -30 -17 -63 -19 -72 -2 -10 -18 -74 -35 -143 -17 -69 -33 -133
-35 -143 -2 -9 -18 -70 -34 -136 -17 -65 -33 -128 -35 -140 -3 -11 -7 -30 -10
-41 -20 -76 -67 -265 -73 -290 -15 -67 -5 -307 14 -338 2 -4 6 -18 8 -30 6
-32 61 -143 97 -195 31 -46 124 -141 174 -179 81 -62 208 -114 329 -133 64
-11 247 -6 267 6 4 3 16 7 25 9 57 11 204 74 223 95 3 3 21 17 40 30 44 31
134 121 143 143 3 9 10 17 15 17 10 0 100 175 106 205 2 11 9 40 16 65 7 25
14 53 16 62 2 10 6 26 9 36 18 66 26 100 31 122 3 14 12 50 20 80 20 76 24 91
29 120 2 14 11 50 20 80 10 30 19 64 21 75 7 35 13 59 23 92 5 18 8 33 5 33
-3 0 0 8 5 18 6 11 12 30 15 43 2 13 11 52 19 87 9 34 13 62 11 62 -3 0 0 9 6
21 7 11 14 33 17 47 8 41 11 57 13 57 1 0 3 7 14 50 4 20 53 221 62 260 3 11
7 27 9 35 2 8 4 16 5 18 2 1 3 5 4 10 1 4 6 23 11 42 4 19 9 42 10 50 1 8 8
35 14 60 7 25 14 52 16 60 2 8 12 49 24 90 11 42 23 91 26 110 3 18 8 36 10
40 2 3 6 17 9 31 3 13 12 48 20 78 8 30 13 58 10 63 -3 4 0 8 5 8 6 0 10 3 9
8 -1 4 1 21 5 37 4 17 9 39 11 50 2 11 10 40 17 65 17 62 19 71 25 105 4 28
-31 65 -604 638 -334 334 -610 607 -613 607 -3 0 -14 -35 -24 -77z"/>
</g>
</svg>
