<?xml version="1.0" encoding="UTF-8" standalone="no"?>
<!-- Created with Inkscape (http://www.inkscape.org/) -->
<svg
   xmlns:svg="http://www.w3.org/2000/svg"
   xmlns="http://www.w3.org/2000/svg"
   version="1.0"
   width="1474.6973"
   height="655.01733"
   viewBox="0 0 1474.6973 655.01733"
   id="svg2"
   xml:space="preserve"><defs
   id="defs37" />
	
		<g
   id="Hilfslinien_anzeigen">
		</g>
		<g
   id="Meer">
			<rect
   width="1474.083"
   height="654.76294"
   x="0"
   y="0"
   style="fill:#c6ecff;fill-rule:evenodd"
   id="rect8" /> 
		</g>
		<g
   id="Land">
			<path
   d="M 1474.083,591.93921 C 1473.4243,594.30249 1473.8906,596.80054 1473.354,599.1023 C 1472.585,602.40162 1470.8364,605.69312 1470.0278,609.07251 C 1469.1484,612.7478 1469.0874,616.57837 1467.6997,620.14087 C 1466.9155,622.15308 1465.5108,623.98755 1464.7056,625.99487 C 1463.1045,629.98803 1463.0488,634.38842 1461.4624,638.3435 C 1460.0806,641.7893 1458.4966,645.57055 1456.5567,648.77123 C 1455.3882,650.69945 1454.229,651.781 1453.605,653.95482 L 1453.2534,654.76293 L 1474.083,654.76293 L 1474.083,591.93921 L 1474.083,591.93921 z "
   style="fill:#e0e0e0;fill-rule:evenodd"
   id="path11" />
		</g>
		<g
   id="Linien">
			<path
   d="M 1391.6118,24.75195 C 1390.7275,24.78247 1389.8325,24.72241 1388.9512,24.6604 C 1387.9971,26.67358 1384.8726,26.63184 1383.0469,27.40454 C 1381.5786,29.6394 1380.8306,31.45361 1381.7163,34.17383 C 1382.5347,35.0249 1387.0742,35.35327 1388.3686,35.36255 C 1388.8555,32.58984 1391.5776,31.1626 1393.2749,29.14234 L 1393.2749,26.94752 L 1391.6118,24.75195 z "
   style="fill:#fefee9;fill-rule:evenodd;stroke:#0978ab;stroke-width:1.98430002;stroke-linejoin:round;stroke-miterlimit:3.8636899"
   id="path14" />
			<path
   d="M 1396.6846,71.58569 L 1396.4355,73.59741 C 1395.7598,74.77563 1394.8711,74.84448 1394.0239,75.61011 C 1392.9365,76.59204 1390.0615,81.26734 1390.1152,82.65357 C 1389.3721,83.41089 1388.5552,84.1233 1387.7036,84.75757 C 1384.3413,84.16968 1383.3833,88.17749 1379.8037,87.22681 C 1378.5874,86.55933 1377.3579,85.49634 1377.2261,84.02564 C 1378.8257,82.44556 1380.5151,82.02662 1381.8828,80.00074 C 1381.7427,76.51295 1384.8599,70.67896 1385.9575,67.10328 L 1387.3711,66.18873 C 1390.4995,68.66772 1394.1475,66.89868 1396.6846,71.58569 z "
   style="fill:#fefee9;fill-rule:evenodd;stroke:#0978ab;stroke-width:1.98430002;stroke-linejoin:round;stroke-miterlimit:3.8636899"
   id="path16" />
			<path
   d="M 1397.8486,151.62329 C 1397.2866,152.36548 1395.9282,153.05542 1395.0215,153.17847 C 1394.6929,154.37427 1394.4477,155.60913 1394.2729,156.83716 C 1392.5117,158.68042 1389.6689,159.54077 1387.7866,161.2273 C 1387.1699,161.78052 1387.27,162.27662 1386.4009,162.78296 L 1385.4585,163.33179 C 1384.5015,163.79908 1383.1592,163.94117 1382.2988,164.42896 C 1381.3203,164.98365 1378.0107,167.29224 1377.2261,168.08814 L 1377.1431,170.28296 L 1376.145,171.01538 C 1374.7163,170.38403 1373.2368,170.43579 1371.7378,170.16138 C 1364.9629,168.91968 1365.7744,171.08911 1360.8442,173.39331 C 1359.9888,174.78393 1359.3745,178.177 1357.9341,178.79028 C 1355.644,178.95337 1353.4087,179.83618 1351.1152,179.79663 C 1349.3877,181.01001 1347.4507,181.82593 1345.7104,182.9978 C 1342.7358,183.38842 1339.5361,180.82104 1336.3969,180.89428 C 1334.2007,180.94555 1331.917,182.29955 1329.9936,183.1809 C 1328.9184,183.67358 1327.7178,183.6892 1326.6675,184.09545 C 1321.7427,185.99877 1320.3935,191.99486 1319.1836,196.44408 C 1317.8432,197.25463 1315.8989,200.00463 1315.3584,201.47533 C 1314.3945,201.89965 1313.4438,202.4724 1312.6147,203.12133 C 1312.1865,204.17602 1311.8432,205.29858 1311.6162,206.41479 L 1309.5376,206.14038 C 1308.5962,204.87524 1308.4062,203.00024 1307.0424,202.11548 C 1305.4331,201.40308 1303.1225,201.61548 1301.4712,202.11548 C 1298.9907,200.11499 1297.3208,200.99439 1294.5693,201.20093 C 1292.7778,201.33521 1290.8979,200.7522 1289.0815,200.74341 C 1288.3662,201.38794 1286.7514,201.6814 1285.8379,201.47534 C 1285.5405,200.69702 1284.9619,200.02514 1284.6743,199.27954 C 1284.2768,198.25024 1284.2622,196.99487 1283.7593,195.98706 C 1282.8745,194.21118 1281.1391,191.76294 1282.8447,189.76685 C 1284.0249,188.67066 1286.372,188.48267 1287.917,188.30298 C 1288.4331,187.31568 1288.6357,186.00318 1289.1645,185.10132 C 1290.2036,183.32935 1292.7764,182.70923 1293.8208,180.98511 C 1294.2578,179.64038 1294.1538,179.17847 1294.1538,178.24146 C 1294.1538,174.0857 1296.1338,165.92847 1296.0664,164.52076 C 1296.0527,164.23756 1294.6904,160.15601 1294.4863,159.67262 C 1294.6753,157.62379 1295.7544,154.75563 1296.6484,152.90358 C 1296.939,152.30251 1306.8286,139.03688 1306.8765,139.00026 C 1308.2153,137.98464 1309.8418,137.80104 1311.2007,136.80446 C 1313.7549,134.93141 1315.9712,132.82057 1318.4351,130.85915 C 1319.9907,130.71608 1329.5854,130.2405 1330.4927,130.58474 C 1337.0713,128.51247 1336.189,125.8362 1338.7251,123.8157 C 1339.9966,122.803 1341.6133,122.74246 1342.7998,121.43777 C 1344.2603,119.83084 1345.063,118.06131 1346.8745,116.68093 C 1349.228,116.09841 1350.4351,118.63161 1353.9424,117.41286 C 1357.4336,116.19997 1360.2563,112.57839 1364.1704,112.47341 C 1369.7056,112.32448 1371.3853,125.79275 1381.8828,112.65603 L 1381.9658,110.46072 C 1384.0864,108.75613 1383.2749,107.69656 1383.7954,105.61306 C 1384.2754,103.69167 1385.7319,101.52615 1387.0386,100.03298 C 1387.4819,98.60183 1387.0806,97.46804 1387.2046,96.09987 C 1387.3335,94.68825 1388.1582,94.23512 1388.7017,93.17262 C 1389.5151,91.5818 1389.272,89.49098 1390.0322,87.86744 C 1391.2417,85.28541 1394.2544,82.96705 1395.77,80.45826 L 1397.6826,80.09205 C 1398.6782,83.0984 1402.8106,83.16871 1405.3325,83.65943 C 1406.4463,85.60181 1411.3853,91.365 1411.5689,92.53248 C 1410.5845,95.24684 1409.5737,98.77418 1409.5737,101.67945 C 1409.5737,102.9607 1410.1582,103.84058 1409.5737,105.24683 C 1407.7085,109.73609 1400.8081,109.03296 1399.5947,116.04078 C 1399.5615,116.23316 1399.4849,118.06715 1399.5122,118.23609 L 1399.9556,119.21168 C 1400.79,121.04762 1400.7266,122.99049 1401.4243,124.73023 C 1401.9971,126.15796 1402.4771,125.57056 1402.5884,127.84058 C 1402.7847,131.82642 1399.5483,133.2229 1398.5972,136.62183 C 1397.8355,139.34302 1398.25,148.04663 1397.8486,151.62329 z "
   style="fill:#fefee9;fill-rule:evenodd;stroke:#0978ab;stroke-width:1.98430002;stroke-linejoin:round;stroke-miterlimit:3.8636899"
   id="path18" />
			<path
   d="M 1296.6484,230.28882 C 1295.8721,230.59351 1295.1025,231.1023 1294.4863,231.66089 L 1295.3179,235.22827 C 1296.0698,235.92505 1297.4018,236.43628 1298.3945,236.60034 L 1299.4756,235.95972 C 1300.2749,234.44507 1300.1807,232.50513 1300.1411,230.83765 L 1296.6484,230.28882 z "
   style="fill:#fefee9;fill-rule:evenodd;stroke:#0978ab;stroke-width:1.98430002;stroke-linejoin:round;stroke-miterlimit:3.8636899"
   id="path20" />
			<path
   d="M 1222.3901,311.88159 L 1221.3091,312.79614 C 1219.1743,319.17114 1217.1577,321.48657 1212.6616,326.24194 C 1211.5064,327.46362 1210.9619,328.97924 1210.0005,330.26733 C 1208.7695,331.91528 1206.8599,332.85083 1205.8423,334.84106 C 1204.3403,337.77905 1205.4473,341.50317 1204.5952,344.17114 C 1204.4375,344.66382 1203.9546,345.14428 1203.7637,345.63403 C 1202.854,347.96948 1203.2193,350.90405 1202.3501,353.13501 C 1202.2339,353.43335 1201.6241,354.08813 1201.4351,354.41528 C 1200.3008,356.38598 1199.6323,358.552 1199.0235,360.72729 C 1197.0464,362.53442 1194.9585,363.6101 1193.2862,365.84985 C 1192.0088,367.5603 1192.0181,369.59448 1191.4566,371.55151 C 1190.7295,374.08569 1189.1597,376.73999 1189.0449,379.38745 C 1188.7935,385.20483 1190.7613,390.95239 1187.8809,396.58423 C 1187.1568,398.00073 1183.8023,401.03198 1182.5591,402.34693 C 1179.7256,405.34351 1177.4981,408.97877 1174.4097,411.76881 C 1171.149,414.71461 1167.1294,415.87721 1163.6826,418.44557 C 1161.9234,419.75661 1161.2422,421.86159 1159.6909,423.20241 C 1158.5186,424.21608 1156.5703,424.47731 1155.2007,425.12331 C 1152.3853,426.45046 1149.8833,428.6736 1147.0518,429.97145 C 1143.0523,431.80397 1138.6382,432.94459 1134.6616,434.81911 C 1132.7769,435.70778 1131.145,437.36403 1129.0899,437.92946 C 1128.6597,438.04762 1122.0073,439.30495 1121.8555,439.30153 C 1120.1875,439.25856 1118.5767,437.89528 1116.8657,437.65505 C 1115.0425,437.3987 1113.2183,437.72536 1111.3779,437.47194 C 1109.8677,437.26393 1108.9185,436.31813 1107.2197,436.55739 L 1106.3882,438.02077 C 1106.5987,439.16481 1106.732,440.33571 1106.8042,441.49684 C 1105.9512,443.1233 1104.0259,444.6194 1102.896,446.25319 L 1103.3946,447.80837 L 1104.8916,448.53982 C 1107.0352,448.52127 1108.1861,447.2239 1109.9917,446.86306 C 1114.8379,445.89382 1120.7036,445.72634 1125.5977,446.52761 C 1128.9839,447.08181 1132.2017,448.74245 1135.1602,450.36941 C 1136.0069,450.83523 1137.0059,451.87673 1137.8213,452.199 C 1139.5362,452.87576 1141.8008,452.34158 1143.5586,452.38162 C 1146.5376,452.44998 1149.9673,454.33816 1152.9556,453.84549 C 1153.5054,453.75467 1156.8506,452.03787 1157.2798,451.65018 C 1157.9834,451.01395 1158.5064,450.05789 1159.2754,449.36356 C 1161.9766,446.92264 1165.1338,444.78885 1167.4248,441.95389 C 1168.6949,440.38211 1169.6968,438.38748 1171.0835,436.92313 C 1172.8096,435.09989 1175.3882,434.14139 1177.2368,432.25809 C 1179.1494,430.31034 1180.1392,427.7576 1181.5611,425.48954 C 1183.8008,421.9163 1187.062,417.66825 1190.3755,414.97001 C 1194.0293,414.57206 1198.5581,414.95731 1202.0171,413.68925 C 1205.5601,412.39091 1208.1304,409.56083 1211.4971,408.01786 C 1212.6104,407.50761 1213.8321,407.42167 1214.9898,407.10331 C 1216.0972,406.79862 1216.8242,406.18632 1217.8169,405.73124 C 1219.8409,404.80399 1225.3179,403.35526 1227.7124,402.71269 C 1231.3638,401.7332 1235.128,401.98271 1238.689,401.15751 C 1239.1978,401.03983 1239.7627,400.67851 1240.2686,400.60868 C 1243.3394,400.1868 1246.3052,400.42899 1249.416,399.51102 C 1251.8955,398.77957 1255.6226,395.33426 1257.981,396.03543 C 1258.8203,396.67117 1259.6826,397.28104 1260.5586,397.86502 L 1261.4737,397.59061 C 1262.0786,396.4036 1266.5884,393.35428 1268.126,391.2786 C 1270.4478,388.14432 1270.6704,384.48172 1272.2837,382.22342 C 1272.854,381.42508 1273.8247,380.77176 1274.4458,379.93631 C 1274.9844,377.45486 1274.5083,374.5784 1275.1944,372.25223 C 1275.7979,370.20487 1278.064,369.05203 1279.2691,367.49588 C 1280.8028,365.51492 1283.3042,354.70535 1285.0894,351.21414 C 1286.168,349.10525 1287.9131,346.43484 1289.3306,344.53689 C 1289.939,343.72244 1290.8238,343.1575 1291.4097,342.24978 C 1292.2427,339.15994 1288.8589,335.71951 1287.917,333.01101 C 1287.2046,330.96267 1288.1875,329.82009 1288.5821,327.88943 C 1289.1919,324.90798 1287.9483,321.50125 1288.1665,318.46755 C 1288.438,314.68923 1292.1792,313.46706 1293.1558,310.32644 C 1293.356,309.68386 1293.2837,308.95486 1293.4883,308.31423 C 1294.1367,306.28347 1295.458,304.30495 1296.1494,302.27663 C 1296.1905,302.15651 1298.478,284.03151 1298.478,283.43337 C 1298.478,282.12038 1298.0708,281.02566 1297.896,279.77468 C 1297.6045,277.6907 1298.0274,275.53396 1297.896,273.46316 C 1297.7847,271.70584 1296.8877,270.32058 1296.3989,268.70681 C 1295.6636,266.28103 1295.2866,262.03103 1295.2349,259.46804 C 1295.1319,254.37234 1296.5308,254.17019 1294.9019,248.30886 C 1294.2071,245.8074 1292.3404,243.47536 1291.4097,240.99099 C 1289.836,240.29031 1286.8135,239.67556 1285.8379,238.24685 C 1285.7974,236.99929 1285.6436,235.70828 1285.3389,234.49636 L 1284.1748,233.39822 C 1282.3257,233.35623 1280.772,232.39676 1279.0196,231.93533 C 1276.3784,233.46707 1273.2295,234.22781 1270.2051,233.49002 C 1268.565,234.26199 1267.3379,235.44705 1265.3819,235.2283 C 1264.6602,235.95144 1263.8697,236.62674 1263.0537,237.24002 L 1261.1407,237.33231 C 1260.3467,237.99881 1259.5977,238.78641 1258.979,239.61893 C 1257.7383,239.93875 1256.3296,239.84403 1255.1538,240.16776 C 1253.8535,240.52518 1253.6465,241.43827 1252.8257,242.17997 C 1250.7705,244.03642 1247.3062,243.45878 1245.7574,245.93046 C 1243.6035,249.3665 1245.0157,253.22245 1245.0918,256.90702 C 1245.1392,259.19022 1242.9283,267.14481 1241.8487,269.25565 C 1241.1324,270.65653 1239.9253,271.71708 1239.4375,273.37186 C 1238.3623,277.01688 1239.8926,281.02127 1239.0215,284.62284 C 1238.0298,285.85233 1236.7012,286.71708 1235.6953,287.91581 C 1234.3355,289.53642 1233.3482,291.39335 1232.1197,293.03837 C 1229.8511,296.07694 1228.4947,296.01103 1228.461,300.44755 C 1225.959,304.25171 1223.0718,307.15894 1222.3901,311.88159 z "
   style="fill:#fefee9;fill-rule:evenodd;stroke:#0978ab;stroke-width:1.98430002;stroke-linejoin:round;stroke-miterlimit:3.8636899"
   id="path22" />
			<path
   d="M 762.12451,536.8103 C 763.4668,537.7395 765.1665,538.18725 766.44824,539.09692 C 767.97998,540.18432 769.43701,542.13159 770.77246,543.48754 C 771.3501,544.07397 772.11133,544.9807 772.93457,545.22582 C 777.37158,546.54516 782.93896,545.35082 787.48682,546.04906 C 791.79444,546.7097 793.07959,548.96508 796.38428,550.4392 C 797.41358,550.89818 798.57422,550.98608 799.62744,551.53686 C 803.16601,551.63452 804.79053,546.03442 806.69531,543.85327 C 808.18799,543.26489 810.03174,542.77759 811.43603,542.11548 C 812.86718,541.44068 813.98388,540.35962 815.59326,539.82886 C 817.44385,539.21802 822.29736,538.16626 823.65967,537.54224 C 824.51465,537.15015 825.42383,536.14136 826.32031,535.89527 C 832.15429,534.29078 835.97607,535.35132 841.28857,531.32203 C 844.39062,528.96851 844.19628,524.11353 846.61035,521.35133 C 847.90185,519.87379 850.36572,519.02028 851.43359,517.50953 C 852.4248,516.10719 852.87158,515.07594 854.34423,513.94215 C 856.08691,512.59986 858.13232,512.15846 859.4165,510.19166 L 859.66552,508.27076 C 859.04736,506.78199 856.56054,505.14234 855.4248,503.78883 C 852.29101,500.05445 854.20849,493.15455 857.83642,490.34254 C 858.9038,490.04713 860.06103,489.93629 861.16259,489.88502 L 861.66161,488.14723 C 860.89306,487.58522 860.08739,487.04664 859.24999,486.59205 C 859.90966,482.38844 856.02978,479.50074 856.75536,475.15846 C 858.73778,473.29127 860.70751,467.17994 860.16454,464.45631 C 858.7036,463.74244 857.96239,462.34205 856.75536,461.34645 C 855.86571,460.61207 854.83446,460.31959 853.8452,459.79127 C 848.43553,456.90113 848.10741,452.15943 848.10741,446.7107 C 848.10741,445.62037 847.5996,444.33863 847.8579,443.23463 C 848.41259,440.86109 849.97704,439.01881 849.60399,436.28297 C 849.06346,432.32106 843.77489,433.5774 845.52928,425.85475 C 846.60106,421.13795 850.89647,419.41579 851.35008,416.15895 C 850.54735,414.66627 848.56297,412.32399 846.85985,411.95143 C 846.37792,412.75563 845.79637,413.51881 845.19676,414.23805 C 843.87303,414.46412 842.37156,414.46803 841.03905,414.32936 L 839.62548,415.15309 L 839.37597,416.98219 C 842.05126,419.49537 843.01952,423.0984 840.45654,426.12965 C 839.04541,426.57399 837.76513,426.29274 836.38232,426.49537 C 832.28564,427.09644 833.04443,430.05641 826.73632,426.58717 C 825.39208,425.84791 824.28808,424.17799 822.91161,423.65992 C 819.50536,422.37818 820.56835,425.20191 814.92821,421.55543 L 813.34813,421.73854 C 809.95653,425.34987 808.79344,422.66237 805.78124,422.74489 C 801.20556,422.87038 796.13476,424.18239 791.56151,422.74489 C 791.03905,422.58083 790.59081,422.16481 790.06493,422.01296 C 788.81835,421.65407 787.78759,421.76735 786.57225,421.09841 C 784.29002,419.84353 781.98436,417.94607 779.5869,416.9822 C 778.25145,417.00027 777.0996,417.50515 775.8452,417.62282 C 774.98582,417.7029 765.60545,416.21852 763.9536,415.97585 L 763.62108,417.89675 C 764.96629,418.80007 765.18749,420.60573 766.1992,421.83034 C 766.57859,425.33034 763.96287,430.0652 765.20115,432.8069 C 763.85594,433.56618 763.20115,435.386 762.62351,436.74001 C 763.60544,440.47194 764.10544,443.90651 761.45945,447.07644 C 760.58982,447.26736 759.32859,447.98904 758.79832,448.72341 C 758.20652,451.53591 755.54344,454.91579 752.64451,455.58327 C 751.38572,455.87282 750.03172,455.79421 748.73631,456.1321 C 746.87986,458.68142 745.01268,463.10964 741.75145,464.27321 C 739.36473,465.12477 734.12547,464.10426 732.77049,466.19411 C 731.47606,469.15309 732.76317,472.85915 732.10545,476.07302 C 731.76072,477.7571 730.81248,479.42654 731.02391,481.19558 C 731.26268,483.18923 732.43846,486.40701 732.18846,488.32986 C 731.91356,490.44607 729.87352,492.48318 730.69188,494.73318 C 731.52196,497.01687 734.06883,499.01199 734.9326,501.31912 C 735.73289,503.45779 735.20848,506.10086 736.51219,508.17947 C 737.44188,509.66189 738.65281,509.93875 739.25633,511.92996 C 739.82371,513.80203 740.22069,516.68728 741.25242,518.33279 C 742.85154,520.88357 746.23777,520.67068 748.4868,522.26638 C 751.42479,524.35134 752.71873,528.21413 755.47215,530.407 C 757.03074,531.6487 759.22899,532.55397 760.62742,533.97438 C 761.30176,534.65894 761.90625,535.8811 762.12451,536.8103 z "
   style="fill:#fefee9;fill-rule:evenodd;stroke:#0978ab;stroke-width:1.98430002;stroke-linejoin:round;stroke-miterlimit:3.8636899"
   id="path24" />
			<path
   d="M 602.71533,289.92798 C 601.13574,290.42359 599.75879,291.40259 598.39111,292.3064 C 595.69384,292.67261 593.90771,290.34497 591.32275,290.84253 L 590.2417,291.84937 C 590.26709,296.00025 587.28858,295.7898 584.5874,297.06275 C 583.57715,297.53931 582.2832,299.60084 581.34424,300.44752 C 579.1333,301.24049 575.85791,301.17457 573.69336,300.26441 C 572.04834,300.90992 571.80957,302.71363 570.53369,303.64918 C 569.25098,304.58961 567.40381,304.58961 566.12646,305.7527 C 563.00634,308.59352 563.98193,313.22975 561.63623,316.54665 C 560.23242,318.532 557.97363,318.59743 556.48047,320.11354 C 555.20654,321.40749 553.31055,323.11647 552.40625,324.68727 C 552.14111,325.14772 551.96826,325.82643 551.65771,326.24196 C 550.36962,327.96706 548.11376,328.70485 547.99853,331.2737 C 544.21484,332.91872 542.16162,332.98366 541.18017,337.58474 C 538.9121,340.13943 535.09472,337.83035 532.53173,337.58474 C 527.89941,337.14187 523.6997,340.9241 522.1372,344.99441 C 520.17968,345.82205 518.6831,345.72244 516.64892,345.90896 C 514.81542,346.07693 512.99365,346.74392 511.24413,347.00662 C 506.0327,347.78787 499.75487,345.62771 494.69579,346.09158 C 493.42138,346.20828 492.56298,346.98318 491.45311,347.28103 C 490.84764,347.44363 490.05174,347.28396 489.45702,347.46365 C 488.51854,347.74734 484.62157,351.58377 483.63622,352.4949 C 480.90477,351.65896 476.96434,351.58816 474.15673,352.12869 C 471.97069,352.54959 469.87597,354.20974 467.58739,354.41531 L 454.86425,354.14138 C 451.19946,353.63699 447.98022,350.68044 444.80248,350.75661 C 444.07934,350.77419 443.16186,351.10768 442.41894,351.21462 C 438.8706,351.72341 436.27539,355.15847 432.74536,356.15358 C 430.16601,356.88112 427.88818,357.67604 425.2334,358.07448 L 424.01392,358.25759 C 423.14063,358.59499 421.68335,360.29861 421.60205,361.27614 C 422.75244,363.34352 424.21045,364.86843 425.34424,366.94753 L 425.84326,367.86208 C 427.36377,369.46755 430.1687,369.16823 431.41455,371.15505 C 434.74976,376.47487 437.76562,382.1946 440.56177,387.80251 C 440.77808,388.23659 441.29517,388.6448 441.47632,389.08327 C 442.17749,390.78005 443.11133,393.92214 443.30591,395.761 C 443.64697,398.9861 442.29614,404.03541 444.55322,406.82887 C 447.15674,410.05153 449.97436,411.51832 452.70239,413.96364 C 453.47314,414.65456 453.98803,415.51686 454.86426,416.15895 C 456.32715,422.26588 457.31665,425.78102 461.43384,430.70338 C 463.02783,432.60865 465.46485,433.90797 467.08838,435.91676 C 468.63477,437.83082 469.61475,440.30348 471.16309,442.22877 C 472.17823,443.49098 474.74659,445.41285 475.3208,446.80201 C 476.16064,448.83472 475.38086,452.23414 476.65137,453.93678 C 479.76953,456.55592 481.8125,454.4524 484.30176,461.16334 C 484.05127,463.08668 483.84131,465.02027 483.47022,466.92555 C 484.13965,468.92701 486.25782,471.69948 488.20997,472.59694 L 488.81935,472.59694 C 491.94533,472.59694 492.94289,470.1111 495.61085,469.30397 C 498.59132,468.40211 502.58448,469.3611 504.50831,468.20631 C 505.3086,467.72633 505.98927,466.81031 506.83692,466.2859 C 509.43995,464.67506 516.27637,461.65699 519.22706,461.16334 C 522.03956,460.69215 529.07325,462.25367 530.86866,460.43141 C 531.42481,458.88405 535.19141,454.21852 536.44044,452.74782 L 538.18653,452.38161 C 539.79786,451.36843 540.49464,448.51735 541.42921,446.89382 C 542.71144,444.66775 546.24269,442.24441 548.41456,438.66091 C 549.82032,436.34206 550.3589,433.5779 552.15675,431.43484 C 554.34474,428.82693 561.19581,425.94412 562.05226,423.93435 C 561.24074,421.65749 563.16847,415.92507 563.88185,413.50613 C 564.57912,411.14041 564.77589,408.71511 565.62746,406.37185 C 566.17189,404.87429 567.07961,403.4783 567.62355,401.98123 C 570.11183,395.13797 573.05519,388.4617 576.10548,381.94852 C 577.6255,378.70291 582.42042,374.57889 582.34181,371.15506 C 580.58644,368.67947 579.92579,364.56375 580.06886,361.58133 C 580.46876,353.2908 583.50831,351.94461 589.90919,348.10428 C 590.37648,347.82401 590.68946,347.2869 591.15675,347.00662 C 592.94777,345.93191 595.24952,345.39773 596.97755,344.17117 C 598.88966,342.81424 601.92921,336.16482 604.04591,333.74295 C 605.41749,332.17361 607.38429,331.30057 608.86866,329.90115 C 611.55567,327.36795 612.96583,324.03543 615.93702,321.66873 C 617.79591,320.18777 619.73878,319.84842 621.75782,318.83279 C 626.56544,316.41482 631.09229,313.45242 635.97755,311.14968 C 638.18751,310.10769 640.7378,310.17995 642.96241,309.32009 C 643.91846,308.95046 646.01612,307.43923 646.7046,306.66726 C 646.75782,305.14187 647.27149,302.94802 648.36769,301.8196 C 648.45216,299.53298 649.36183,294.28737 647.03664,292.94655 C 646.79494,291.44899 646.09035,287.75759 645.20754,286.63551 C 643.48098,286.86158 640.29787,285.91285 638.6382,285.26295 C 638.105,286.78883 637.09474,288.29274 635.81105,289.28785 C 634.48781,289.21217 633.7671,289.85767 632.73439,290.4773 C 628.73097,292.87867 628.78566,292.27613 624.58498,293.22095 C 623.44484,293.47779 622.38723,294.10034 621.1758,294.31909 C 619.93019,293.73169 618.78518,293.86987 617.51662,293.58716 C 615.50197,293.13794 613.54152,292.28198 611.5298,291.84937 C 607.49023,290.98022 607.22314,292.33179 602.71533,289.92798 z "
   style="fill:#fefee9;fill-rule:evenodd;stroke:#0978ab;stroke-width:1.98430002;stroke-linejoin:round;stroke-miterlimit:3.8636899"
   id="path26" />
			<path
   d="M 302.60645,431.34351 C 303.43799,435.79029 302.1106,439.63208 305.26734,443.60035 C 306.18946,444.75953 307.6709,445.27564 308.594,446.43629 C 310.03858,448.25221 309.1272,450.59205 312.25294,453.11354 C 313.73439,454.30885 315.44728,454.08864 316.90919,455.12624 C 320.33107,457.55446 322.25123,461.4739 327.30372,464.27321 C 328.68409,464.18239 330.18458,464.64577 331.46143,464.54762 C 333.43848,464.39576 335.14209,462.01442 337.53199,461.89479 C 340.77833,461.73268 343.7815,463.47047 347.26099,462.44411 C 348.33619,462.12673 349.89551,460.35182 351.00318,459.69948 L 352.99903,459.97389 C 355.91505,455.89284 358.60206,455.17897 359.73463,453.66237 C 360.59669,452.50807 361.52369,450.81569 362.31251,449.54616 C 363.35035,449.1863 364.37843,448.78591 365.38917,448.3572 C 365.94142,447.3987 366.70997,446.87429 367.38478,446.07009 C 371.30226,441.40212 371.52101,438.98611 371.6255,432.80691 C 369.61769,431.42263 369.93605,428.88552 368.88185,426.95242 C 368.20412,425.71023 366.82033,424.3782 365.8047,423.38553 C 363.59767,421.22733 360.96388,421.75907 358.32081,420.7327 C 356.08643,419.86502 355.88893,417.84452 354.1631,416.616 L 352.16725,416.43387 C 349.54103,414.03299 345.03786,410.52664 341.68971,409.29862 C 339.26466,408.40946 332.22365,407.56815 330.87941,406.82889 C 329.44557,406.03983 326.94679,403.4866 325.64064,403.35282 C 325.48927,403.33768 323.70265,403.49344 323.56178,403.53593 C 322.26515,403.92851 307.70802,412.98222 307.01393,413.96366 C 305.80348,415.67606 306.26491,417.53251 305.84962,419.36063 C 305.52418,420.79374 304.06813,422.38846 303.77076,423.84256 C 303.25,426.38892 304.31201,428.95337 302.60645,431.34351 z "
   style="fill:#fefee9;fill-rule:evenodd;stroke:#0978ab;stroke-width:1.98430002;stroke-linejoin:round;stroke-miterlimit:3.8636899"
   id="path28" />
			<path
   d="M 90.22729,542.11548 C 87.8208,542.01001 84.21557,542.85816 82.07788,542.29859 C 79.84741,541.71412 78.36743,538.83423 75.09302,538.365 C 70.64112,540.25465 66.89038,541.06227 65.53003,546.23121 C 65.02637,548.14527 64.75586,549.39967 65.44678,551.35426 C 65.97998,552.86207 66.92823,554.31178 67.44287,555.83619 C 67.82324,556.96314 67.94409,558.04566 68.52368,559.12916 C 69.23486,559.844 70.37964,560.36891 71.35107,560.59254 C 73.36987,561.05738 75.45898,560.74977 77.50463,561.14137 C 79.83105,561.58668 82.12255,562.60817 84.48974,562.87965 C 85.90331,563.04176 87.61035,562.60572 88.97997,562.87965 C 89.31078,562.94557 91.40551,564.02565 91.97338,564.25123 C 94.74023,563.69703 99.02148,563.57398 101.2871,565.53199 C 105.57201,569.23609 107.58983,579.47926 115.92235,580.62476 C 116.85253,580.75269 117.90087,580.85816 118.77733,580.50318 C 119.89476,580.05054 121.57713,579.70826 122.24193,578.61256 L 121.6599,577.5149 L 121.8264,575.594 C 122.48338,574.84254 123.0825,573.79322 123.40623,572.84986 C 123.20945,571.02125 122.78807,569.26783 123.32298,567.45338 C 123.65037,566.34303 128.35325,559.6443 129.31053,558.67213 C 130.51488,557.44899 132.72581,556.97145 134.21678,556.20192 L 134.79857,555.19606 C 134.79857,550.24928 134.08055,548.66383 137.37645,544.67653 C 137.72948,542.78835 137.32323,540.67751 138.12499,538.91383 C 140.13207,534.4983 146.61229,534.22975 147.02245,528.21168 C 147.21386,525.40357 146.0891,524.8025 144.94359,522.63209 C 142.61742,518.22438 142.88524,514.67359 136.51708,514.67359 C 130.86327,514.67359 132.34936,515.12086 129.4768,519.0647 C 127.6101,519.84644 125.64355,519.15503 123.73925,519.79615 C 123.04321,520.53199 122.39843,521.51295 121.6599,522.17457 C 119.38524,524.21314 115.79344,522.12379 113.0952,524.46168 L 112.42992,526.01637 L 113.92675,526.65699 L 114.8413,527.93726 L 114.59203,529.85816 C 111.76415,531.94703 107.78295,533.24586 105.69408,536.17017 C 104.78807,537.43872 104.54735,539.43824 103.61522,540.74341 C 102.76439,541.93433 101.03636,542.39038 99.7346,542.81665 C 95.68457,544.14429 93.83398,544.61206 90.22729,542.11548 z "
   style="fill:#fefee9;fill-rule:evenodd;stroke:#0978ab;stroke-width:1.98430002;stroke-linejoin:round;stroke-miterlimit:3.8636899"
   id="path30" />
			<path
   d="M 174.79639,302.64282 C 175.9458,301.70141 175.63819,300.75952 176.12696,299.71557 C 177.3689,297.06371 180.30616,294.95434 181.7815,292.30639 C 183.02003,290.08422 182.78467,287.71899 183.61109,285.44604 C 184.53956,282.89184 187.93189,279.00561 187.51954,276.20727 C 187.50416,276.10278 185.80567,272.19702 185.6067,271.63403 C 185.02735,269.99487 184.92945,268.21557 184.35939,266.60278 C 183.1609,263.21264 181.73878,260.00805 182.6133,256.26684 C 183.57351,252.15746 185.71437,247.86157 188.51735,244.64965 C 191.41603,241.32787 194.22463,240.54272 193.83937,235.04516 C 191.82472,232.95287 188.29811,231.60424 186.77077,229.37426 C 186.77077,227.77172 187.10353,225.45824 186.18874,224.0686 C 184.42189,221.38403 179.42238,218.156 182.19728,214.18969 C 181.28566,209.41088 173.35451,203.71459 168.55983,204.40209 C 166.39235,204.71313 162.70192,207.7849 158.83058,207.96947 C 156.31203,208.09008 154.24025,206.35521 151.84572,206.14037 C 149.79787,205.95678 147.76515,206.82055 145.77541,206.32299 C 143.52248,205.76 142.60451,203.15356 140.53615,202.8474 C 139.65187,203.13549 138.97731,203.72728 138.3467,204.37181 C 135.41604,207.36449 131.78908,208.29027 128.39577,210.43968 C 127.12819,211.24241 126.13527,212.822 125.23586,214.00657 C 124.05666,214.32493 122.86062,214.60276 121.65993,214.82981 C 119.23488,216.55784 120.3799,218.57444 119.1653,220.68381 C 116.83254,224.73654 110.00026,227.2175 112.76247,234.77072 C 114.29885,236.49533 119.39992,239.08176 119.99709,239.98459 C 121.45388,242.18771 121.27395,245.0925 124.23806,246.2048 L 125.56838,249.22335 C 124.76174,252.61105 129.08816,253.71603 127.89699,258.91915 C 129.22145,262.60909 131.23195,263.03097 132.55348,265.13936 C 133.38063,266.45821 133.92189,267.91182 134.88185,269.25557 C 135.46828,270.07686 136.46046,270.83614 136.96071,271.63399 C 139.15407,275.13301 137.8882,280.79952 139.37209,284.16573 C 140.44143,286.59053 147.70681,292.61202 148.4363,294.68477 C 150.1404,299.52754 149.10402,304.77461 150.09914,309.77706 C 151.38649,310.66866 152.27297,312.37325 152.51076,313.89376 C 149.61501,319.32931 158.20388,322.96065 160.07814,326.6086 L 161.07594,326.15108 C 161.72462,324.74092 161.92042,322.70284 162.82203,321.48604 C 163.39356,320.71456 164.61231,320.19991 165.1504,319.38204 C 166.011,318.07491 166.05152,316.26485 167.31251,315.08272 C 168.12916,314.31758 169.33741,314.17989 170.22291,313.61885 C 173.47559,311.55884 174.55005,306.03784 174.79639,302.64282 z "
   style="fill:#fefee9;fill-rule:evenodd;stroke:#0978ab;stroke-width:1.98430002;stroke-linejoin:round;stroke-miterlimit:3.8636899"
   id="path32" />
			<path
   d="M 1474.083,591.93921 C 1473.4243,594.30249 1473.8906,596.80054 1473.354,599.1023 C 1472.585,602.40162 1470.8364,605.69312 1470.0278,609.07251 C 1469.1484,612.7478 1469.0874,616.57837 1467.6997,620.14087 C 1466.9155,622.15308 1465.5108,623.98755 1464.7056,625.99487 C 1463.1045,629.98803 1463.0488,634.38842 1461.4624,638.3435 C 1460.0806,641.7893 1458.4966,645.57055 1456.5567,648.77123 C 1455.3882,650.69945 1454.229,651.781 1453.605,653.95482 L 1453.2534,654.76293"
   style="fill:none;fill-rule:evenodd;stroke:#0978ab;stroke-width:1.27559996;stroke-linejoin:round;stroke-miterlimit:3.8636899"
   id="path34" />
		</g>
	</svg>